<svg width="49" height="40" viewBox="0 0 49 40" fill="none" xmlns="http://www.w3.org/2000/svg">
<g clip-path="url(#clip0_2_3)">
<path fill-rule="evenodd" clip-rule="evenodd" d="M11.5699 8.95463C11.4788 9.00327 11.0119 9.02011 10.532 8.18756C10.0502 7.355 9.3229 5.12862 9.50519 5.03134C9.68748 4.93405 11.1086 6.79186 11.5234 7.65996C11.9382 8.52806 11.6629 8.90599 11.5699 8.9565V8.95463Z" fill="#AF8F2B"/>
<path fill-rule="evenodd" clip-rule="evenodd" d="M11.5699 8.95463C11.1812 8.53555 9.94046 5.95182 9.50519 5.02947C9.3229 5.12675 10.0502 7.35313 10.532 8.18569C11.0137 9.02011 11.4788 9.00327 11.5699 8.95276V8.95463Z" fill="url(#paint0_radial_2_3)"/>
<path fill-rule="evenodd" clip-rule="evenodd" d="M9.50522 5.02947C9.94235 5.95182 11.1812 8.53555 11.57 8.95463C11.663 8.90599 11.9383 8.52806 11.5234 7.65809C11.1086 6.78999 9.68751 4.93218 9.50522 5.02947Z" fill="url(#paint1_radial_2_3)"/>
<path fill-rule="evenodd" clip-rule="evenodd" d="M11.901 10.8985C11.8062 11.0313 11.0993 11.3344 9.54056 10.2811C7.98364 9.22778 4.68751 6.08466 4.87724 5.82086C5.06697 5.55519 9.07925 7.69738 10.5673 8.84612C12.0554 9.99485 11.9959 10.7657 11.901 10.8985Z" fill="#AF8F2B"/>
<path fill-rule="evenodd" clip-rule="evenodd" d="M11.901 10.8985C10.891 10.4551 6.45276 7.04256 4.87724 5.82086C4.68751 6.08653 7.98364 9.22778 9.54056 10.2811C11.0975 11.3344 11.8043 11.0313 11.8992 10.8985H11.901Z" fill="url(#paint2_radial_2_3)"/>
<path fill-rule="evenodd" clip-rule="evenodd" d="M4.87723 5.82086C6.45275 7.04256 10.891 10.4551 11.901 10.8985C11.9959 10.7657 12.0573 9.99485 10.5673 8.84612C9.07924 7.69738 5.06696 5.55519 4.87723 5.82086Z" fill="url(#paint3_radial_2_3)"/>
<path fill-rule="evenodd" clip-rule="evenodd" d="M12.0703 9.75164C11.9234 9.78531 11.2351 9.49158 10.7385 7.49719C10.2418 5.50281 9.73214 0.565482 10.0242 0.5C10.3162 0.434518 11.9345 5.12301 12.3252 7.14172C12.7158 9.16043 12.2154 9.71796 12.0685 9.75164H12.0703Z" fill="#AF8F2B"/>
<path fill-rule="evenodd" clip-rule="evenodd" d="M12.0703 9.75164C11.6053 8.64593 10.4334 2.64032 10.0242 0.5C9.73214 0.565482 10.2418 5.50281 10.7385 7.49719C11.2351 9.49158 11.9215 9.78531 12.0703 9.75164Z" fill="url(#paint4_radial_2_3)"/>
<path fill-rule="evenodd" clip-rule="evenodd" d="M10.0242 0.5C10.4334 2.64032 11.6053 8.64593 12.0684 9.75164C12.2154 9.71796 12.7158 9.16043 12.3251 7.14172C11.9345 5.12488 10.3181 0.434518 10.0242 0.5Z" fill="url(#paint5_radial_2_3)"/>
<path fill-rule="evenodd" clip-rule="evenodd" d="M11.942 10.0379C11.849 10.1183 11.2444 10.1688 10.1228 8.92095C9.00111 7.67306 6.74107 4.30917 6.92522 4.15014C7.10937 3.99111 10.0688 6.75444 11.1216 8.05847C12.1763 9.36436 12.0331 9.95744 11.9401 10.0379H11.942Z" fill="#AF8F2B"/>
<path fill-rule="evenodd" clip-rule="evenodd" d="M11.942 10.0379C11.1849 9.41862 8.04129 5.53648 6.92708 4.15014C6.74293 4.30917 9.00297 7.67306 10.1246 8.92095C11.2463 10.1688 11.8508 10.1183 11.9438 10.0379H11.942Z" fill="url(#paint6_radial_2_3)"/>
<path fill-rule="evenodd" clip-rule="evenodd" d="M6.92709 4.15014C8.0413 5.53648 11.1849 9.41861 11.942 10.0379C12.035 9.95744 12.1782 9.36436 11.1235 8.05847C10.0688 6.75257 7.11125 3.98924 6.92709 4.14827V4.15014Z" fill="url(#paint7_radial_2_3)"/>
<path fill-rule="evenodd" clip-rule="evenodd" d="M12.0424 16.2755C12.7288 14.9228 12.7641 13.5421 12.353 12.4065C12.0722 12.6403 11.6127 13.1006 11.5625 13.0837C11.5402 13.0762 11.8861 12.4738 12.1633 11.963C12.0238 11.6843 11.8843 11.4149 11.7392 11.1548C11.5197 11.3157 11.3393 11.4111 11.3039 11.3962C11.2667 11.3793 11.3579 10.9546 11.4379 10.6478C11.1533 10.1988 10.8352 9.77409 10.4464 9.36249C10.1395 9.84331 9.81211 10.21 9.78793 10.2007C9.76375 10.1913 9.98511 9.40365 10.0353 8.95837C9.66889 8.62161 9.21688 8.30168 8.73139 8.02853C8.57142 8.4102 8.43377 8.56735 8.40773 8.57858C8.3854 8.5898 8.40214 8.0884 8.37424 7.83957C7.89247 7.60009 7.39024 7.40926 6.91219 7.29701C6.7392 7.87137 6.64061 8.39336 6.62387 8.95837C7.19121 9.29513 7.686 9.44481 7.69902 9.49158C7.70646 9.51964 7.30095 9.58513 6.63131 9.51029C6.64991 9.83957 6.69456 10.1913 6.7671 10.5804C6.96613 10.6721 7.40326 10.7058 7.40884 10.7264C7.41256 10.7432 7.18377 10.7993 6.8136 10.8199C6.89545 11.2222 7.0331 11.6506 7.20609 12.0809C7.79575 12.2437 8.50631 12.2886 8.51747 12.341C8.52305 12.3672 8.20125 12.543 7.47022 12.6833C7.7232 13.2203 8.01524 13.7404 8.29984 14.195C8.47469 14.4738 8.6607 14.7208 8.86159 14.9378C9.54798 15.0369 10.1767 15.065 10.1786 15.0893C10.1786 15.1286 9.75073 15.2521 9.33964 15.3812C10.0725 15.9612 10.9635 16.2381 12.0424 16.2755Z" fill="#507F19"/>
<path fill-rule="evenodd" clip-rule="evenodd" d="M12.0424 16.2755C10.7161 13.37 8.7128 9.84705 6.91406 7.29701C7.39211 7.41113 7.89435 7.60009 8.37612 7.83957C8.40402 8.0884 8.38728 8.5898 8.4096 8.57858C8.43378 8.56548 8.57329 8.4102 8.73326 8.02853C9.22061 8.30168 9.67262 8.62161 10.0372 8.95837C9.98698 9.40365 9.76563 10.1932 9.78981 10.2007C9.81399 10.21 10.1414 9.84144 10.4483 9.36249C10.8371 9.77409 11.1551 10.1988 11.4397 10.6478C11.3597 10.9546 11.2686 11.3793 11.3058 11.3962C11.3411 11.4111 11.5216 11.3157 11.7411 11.1548C11.8862 11.4149 12.0257 11.6824 12.1652 11.963C11.888 12.4757 11.542 13.0762 11.5644 13.0837C11.6164 13.1006 12.074 12.6422 12.3549 12.4065C12.766 13.5421 12.7325 14.921 12.0443 16.2755H12.0424Z" fill="url(#paint8_radial_2_3)"/>
<path fill-rule="evenodd" clip-rule="evenodd" d="M6.91219 7.29701C8.71092 9.84518 10.7161 13.37 12.0405 16.2755C10.9598 16.2362 10.0707 15.9612 9.33778 15.3812C9.75073 15.2521 10.1786 15.1286 10.1767 15.0893C10.1767 15.065 9.54612 15.0369 8.85973 14.9378C8.65884 14.7208 8.47283 14.4738 8.29798 14.195C8.01338 13.7404 7.72134 13.2203 7.46836 12.6833C8.20125 12.5449 8.52119 12.3672 8.51561 12.341C8.50445 12.2886 7.79388 12.2437 7.20423 12.0809C7.03124 11.6506 6.89359 11.2222 6.81174 10.8199C7.18377 10.7993 7.4107 10.7451 7.40698 10.7264C7.4014 10.7058 6.96427 10.6721 6.76524 10.5804C6.69455 10.1913 6.64991 9.83957 6.62945 9.51029C7.29909 9.58513 7.7046 9.51964 7.69716 9.49158C7.68414 9.44294 7.18935 9.29513 6.62201 8.95837C6.63875 8.39336 6.73734 7.87325 6.91033 7.29701H6.91219Z" fill="url(#paint9_radial_2_3)"/>
<path style="mix-blend-mode:multiply" fill-rule="evenodd" clip-rule="evenodd" d="M11.5513 15.2353C10.3702 12.8068 8.82069 10.1015 7.35492 7.93686C7.30097 7.85828 7.24889 7.78157 7.19681 7.70299C7.47583 7.82273 8.10641 8.0884 8.23475 8.36716C8.3352 8.58419 8.2608 9.04818 8.34822 9.02947C8.47285 9.00327 8.66816 8.58793 8.99926 8.76754C9.15179 8.84986 9.20574 9.01076 9.24666 9.16978C9.27642 9.28391 9.27642 9.413 9.3006 9.529C9.34711 9.75912 9.46243 9.47474 9.5387 9.42423C9.59636 9.38681 9.70425 9.40739 9.74145 9.46726C9.82888 9.60383 9.77865 9.81899 9.74145 9.96679C9.72657 10.0323 9.6131 10.3971 9.69867 10.4158C9.81586 10.442 10.0391 9.90505 10.2158 10.0005C10.3292 10.0622 10.3013 10.1539 10.2939 10.2624C10.2846 10.4383 10.4055 10.2886 10.4613 10.2998C10.4836 10.3036 10.5004 10.3335 10.5134 10.3503C10.5301 10.3709 10.5469 10.3915 10.5618 10.4139C10.6659 10.5674 10.638 10.7638 10.625 10.9378C10.6138 11.0968 10.651 11.0987 10.731 10.9659C10.7571 10.9247 10.8222 10.805 10.8817 10.8592C10.9059 10.8817 10.9375 10.9359 10.9561 10.9677C10.9822 11.0126 11.0119 11.0594 11.0249 11.1099C11.077 11.3269 10.9784 11.6188 10.9338 11.8358C10.9189 11.9125 10.8966 12.1071 11.0342 12.0285C11.1905 11.9312 11.3133 11.7928 11.449 11.6693C11.6072 11.5253 11.5923 11.645 11.5513 11.776C11.5104 11.9051 11.4993 11.9425 11.5476 12.0734C11.5644 12.1165 11.5718 12.1501 11.5774 12.195C11.5774 12.2119 11.5792 12.2268 11.5811 12.2437V12.2717C11.5885 12.4906 11.5086 12.717 11.4379 12.921C11.4025 13.0257 11.2705 13.312 11.304 13.4074C11.3449 13.5234 11.4528 13.486 11.5458 13.4523C11.7615 13.3756 11.9401 13.2802 12.0368 13.5702C12.128 13.8396 12.0833 14.0659 11.9996 14.3297C11.9494 14.4832 11.8676 14.6908 11.9159 14.848C11.9662 15.007 11.942 15.05 11.901 15.2109C11.8601 15.3681 11.8118 15.5178 11.7578 15.6693C11.689 15.5253 11.6183 15.3775 11.5476 15.2315L11.5513 15.2353Z" fill="url(#paint10_radial_2_3)"/>
<path style="mix-blend-mode:multiply" fill-rule="evenodd" clip-rule="evenodd" d="M7.35491 7.93873C8.82068 10.1015 10.3702 12.8087 11.5513 15.2371C11.3188 15.2297 11.1086 15.1997 10.8873 15.1342C10.7738 15.0987 10.6659 15.0538 10.5543 15.0126C9.68006 14.7002 10.4762 14.7993 10.4074 14.6441C10.3032 14.543 9.4773 14.2961 9.27641 14.2268C9.19829 14.2007 9.02344 14.1408 8.98251 14.0716C8.90439 13.9425 9.4401 13.8396 9.00111 13.6001C8.72396 13.4485 8.68675 13.4224 8.51004 13.1548C8.5026 13.1417 8.49702 13.1286 8.48958 13.1155C8.43936 13.0313 8.29055 13.0089 8.20312 12.9846C8.11384 12.9602 7.98921 12.906 8.16964 12.8798C8.28497 12.863 8.38727 12.8517 8.50074 12.8218C8.57701 12.8012 8.67001 12.7732 8.74256 12.747C8.84858 12.7077 8.98623 12.6665 9.08482 12.6179C9.62053 12.3391 8.62537 12.1838 8.46726 12.1464C8.24591 12.094 8.00595 12.036 7.85714 11.8489L7.84598 11.834C7.75483 11.7198 7.80692 11.6993 7.91852 11.6768C7.94457 11.6712 8.16034 11.645 8.03385 11.6001C7.97619 11.5795 7.92224 11.5683 7.86458 11.5421C7.75669 11.4953 7.67299 11.4579 7.62463 11.3419C7.60044 11.2783 7.56138 11.1904 7.58928 11.1249C7.72135 10.9153 8.1343 11.0033 8.29055 10.9079C8.40216 10.8405 8.20126 10.7657 8.1529 10.7507C7.93341 10.6796 7.55952 10.5992 7.40327 10.4326C7.33445 10.3485 7.31399 10.195 7.29911 10.0884C7.29724 10.0734 7.29352 10.0566 7.2898 10.0416C7.23958 9.90131 7.03869 9.88447 6.92336 9.80215C6.81175 9.7217 7.02753 9.7217 7.06473 9.7217C7.26376 9.71796 7.46094 9.67119 7.65439 9.6319C7.71763 9.6188 7.84412 9.60009 7.85528 9.52152C7.86272 9.43171 7.59486 9.29888 7.52604 9.25585C7.37537 9.16604 7.22842 9.09869 7.21726 8.90412C7.21726 8.86108 7.21726 8.81618 7.22098 8.77315C7.22098 8.75631 7.22098 8.73012 7.23028 8.71515C7.25446 8.6609 7.38281 8.70019 7.41443 8.63845C7.44977 8.57109 7.28794 8.4869 7.2712 8.37652C7.26562 8.31478 7.33631 8.01731 7.35677 7.93873H7.35491Z" fill="url(#paint11_radial_2_3)"/>
<path fill-rule="evenodd" clip-rule="evenodd" d="M6.9122 7.29701C7.10937 7.66932 7.40513 8.09214 7.63393 8.45697C8.31287 9.53648 8.93043 10.5992 9.55915 11.7067C10.1935 12.8237 10.8017 13.8994 11.3932 15.0426C11.5941 15.4317 11.8155 15.9107 12.0405 16.2755C11.9847 16.0996 12.0071 16.1595 11.9382 15.9892C11.503 14.9303 10.9282 13.7984 10.3925 12.7844C9.68564 11.4448 8.92113 10.1819 8.08408 8.92095C7.766 8.44387 7.28794 7.70861 6.9122 7.29701Z" fill="url(#paint12_radial_2_3)"/>
<path fill-rule="evenodd" clip-rule="evenodd" d="M15 29.2521C13.7593 30.2568 12.035 30.6085 10.3981 30.4719C11.0286 29.7703 11.4025 29.0182 11.3895 28.9434C11.3839 28.9079 10.4613 29.7404 9.56659 30.3597C8.84487 30.2231 8.15848 30.0959 7.47768 29.9687C7.64509 29.5084 7.73809 29.065 7.68601 29.0295C7.64137 28.9995 6.8936 29.3999 6.29836 29.7442C5.32366 29.5458 4.33036 29.3007 3.38914 28.9378C3.60305 28.5168 3.90625 27.8358 3.86719 27.7797C3.82812 27.7254 3.04501 28.3466 2.52976 28.5636C1.77641 28.195 1.07515 27.7273 0.46875 27.1249C0.811012 26.6964 1.17001 26.3279 1.55134 26.0098C2.03311 26.167 2.4535 26.2699 2.46094 26.225C2.4721 26.152 2.35491 25.8527 2.18006 25.5402C2.78088 25.1398 3.44308 24.8274 4.19271 24.5599C4.80469 24.9341 5.58408 25.8134 5.65662 25.761C5.70312 25.7254 5.65662 25.1698 5.19159 24.2418C5.85937 24.0491 6.59784 23.9481 7.35677 23.9369C7.68973 24.3578 8.03199 24.7657 8.11756 24.7451C8.1808 24.7301 8.32403 24.4214 8.37984 23.9761C9.80469 24.1071 11.2258 24.5524 12.3233 25.3176C12.7772 26.2643 13.1603 27.2315 13.2199 27.2184C13.2645 27.2091 13.298 26.747 13.2385 26.1183C13.9918 26.9546 14.721 28.1445 14.9981 29.254L15 29.2521Z" fill="#507F19"/>
<path fill-rule="evenodd" clip-rule="evenodd" d="M7.47582 29.9687C8.15662 30.0959 8.843 30.2231 9.56473 30.3597C10.4594 29.7404 11.3821 28.9079 11.3876 28.9434C11.4007 29.0182 11.0268 29.7703 10.3962 30.4719C12.035 30.6085 13.7593 30.2568 14.9981 29.2521C10.9542 27.4298 3.88951 26.6628 0.466888 27.1268C1.07329 27.7311 1.77455 28.1969 2.5279 28.5655C3.04315 28.3485 3.82812 27.7273 3.86533 27.7816C3.90439 27.8358 3.59933 28.5187 3.38727 28.9397C4.3285 29.3026 5.3218 29.5477 6.2965 29.746C6.89174 29.4018 7.63951 29.0014 7.68415 29.0313C7.73623 29.0669 7.64323 29.5103 7.47582 29.9705V29.9687Z" fill="url(#paint13_radial_2_3)"/>
<path fill-rule="evenodd" clip-rule="evenodd" d="M0.466888 27.1249C3.89137 26.6628 10.9542 27.428 14.9981 29.2502C14.721 28.1408 13.9918 26.9509 13.2385 26.1146C13.298 26.7432 13.2645 27.2072 13.2199 27.2147C13.1603 27.2259 12.7753 26.2605 12.3233 25.3138C11.2258 24.5486 9.80469 24.1034 8.37983 23.9724C8.32403 24.4177 8.1808 24.7264 8.11756 24.7414C8.03199 24.7619 7.68787 24.3559 7.35677 23.9331C6.59784 23.9443 5.85937 24.0454 5.19159 24.2381C5.65662 25.1679 5.70312 25.7236 5.65662 25.7573C5.58408 25.8115 4.80469 24.9322 4.19271 24.5561C3.44308 24.8237 2.78088 25.1361 2.18006 25.5365C2.35491 25.8489 2.4721 26.1483 2.46094 26.2212C2.4535 26.2661 2.03311 26.1632 1.55134 26.0061C1.17001 26.326 0.81101 26.6927 0.468749 27.1211L0.466888 27.1249Z" fill="url(#paint14_radial_2_3)"/>
<path style="mix-blend-mode:multiply" fill-rule="evenodd" clip-rule="evenodd" d="M11.8192 29.5215C12.2991 29.5103 12.846 29.4523 13.3129 29.3475C13.3631 29.3363 13.4133 29.3232 13.4617 29.3101C13.7388 29.2353 14.0271 29.1268 14.2504 28.9397C10.4818 27.4785 4.76561 26.8068 1.35229 27.037C1.44158 27.1024 1.75966 27.3326 1.84895 27.3475C2.10192 27.37 2.44977 27.1286 2.53905 27.1417C2.6395 27.1567 2.41814 27.3999 2.39582 27.428C2.35118 27.4878 2.29352 27.5702 2.36234 27.6338C2.38652 27.6487 2.43116 27.6693 2.45907 27.6805C2.56881 27.7311 2.68042 27.7797 2.79203 27.8265C3.32402 28.0098 3.73697 27.6731 4.13503 27.3625C4.5982 26.9977 4.30988 27.5851 4.24664 27.7891C4.16479 28.0529 4.09225 28.4177 4.48474 28.137C4.64657 28.0192 4.76933 27.9088 4.90698 27.7647C5.10043 27.5645 4.96279 27.7685 4.9107 27.8545C4.84932 27.9556 4.78793 28.0491 4.72283 28.1501C4.67633 28.2287 4.5889 28.3784 4.63913 28.4682C4.65959 28.4925 4.72841 28.5056 4.76003 28.515C4.94046 28.5674 5.12276 28.616 5.30691 28.6609C5.67149 28.7301 5.95237 28.573 6.28719 28.4645C6.58481 28.3672 6.70572 28.2568 6.95497 28.1052C7.02938 28.0603 7.04612 28.0884 7.00148 28.1576C6.89359 28.3298 6.51971 28.6703 6.4825 28.8162C6.47692 28.8405 6.47692 28.848 6.4825 28.8723C6.50854 28.9715 6.7299 28.9864 6.81546 28.9958C6.87127 29.0033 6.92521 29.007 6.98102 29.007C7.7418 28.9284 8.12871 28.0847 8.29798 28.1109C8.41145 28.1277 8.26264 28.5767 8.24032 28.6703C8.18823 28.8929 8.13615 29.1866 8.41331 29.2727C8.54166 29.3008 8.69418 29.3363 8.82253 29.3045C9.10155 29.2297 9.3136 29.0014 9.50706 28.7956C9.54054 28.7601 9.76189 28.5056 9.78607 28.5C9.84002 28.4888 9.64285 28.8368 9.63354 28.8573C9.58146 28.9565 9.42149 29.2858 9.46055 29.3775C9.50706 29.4392 9.74329 29.4429 9.82328 29.4317C9.97209 29.4074 10.106 29.3513 10.2251 29.2558C10.2548 29.2315 10.4222 29.0819 10.4427 29.0819C10.4576 29.0819 10.439 29.1118 10.4353 29.1174C10.4074 29.166 10.2585 29.3644 10.3069 29.4055C10.346 29.4411 10.4762 29.3793 10.5171 29.3606C10.9021 29.196 11.1458 28.9434 11.4434 28.6609C11.7783 28.3447 11.7727 28.5786 11.6629 28.8742C11.6146 29.0033 11.4193 29.3737 11.5457 29.4729C11.6071 29.5215 11.7411 29.5159 11.8173 29.514L11.8192 29.5215Z" fill="url(#paint15_radial_2_3)"/>
<path style="mix-blend-mode:multiply" fill-rule="evenodd" clip-rule="evenodd" d="M1.35602 27.0369C4.76934 26.8068 10.4855 27.4785 14.2541 28.9397C14.3397 28.9733 14.4252 29.007 14.5089 29.0407C14.3341 28.6478 14.1276 28.2848 13.8635 27.9462C13.5658 27.5645 13.6272 28.0229 13.3315 27.6824C13.0227 27.3288 12.8757 26.949 12.4833 26.6609L12.4516 26.6384C12.3977 26.601 12.3437 26.5636 12.2879 26.5299C12.0722 26.4046 12.1466 26.6291 11.9661 26.4794C11.8638 26.3952 11.7634 26.3148 11.6592 26.2325C11.4248 26.0472 11.3263 26.0117 11.051 25.9013C11.0082 25.8845 10.9617 25.8639 10.9208 25.8489C10.8631 25.834 10.8091 25.8283 10.7608 25.8695L10.7347 25.8994C10.6343 26.0472 10.6455 26.5674 10.625 26.7769C10.612 26.9022 10.5692 27.1118 10.5115 26.8517C10.439 26.5243 10.4687 26.3466 10.3051 26.021C10.0632 25.5496 9.88838 25.5103 9.39917 25.4093C9.32477 25.3924 9.24292 25.3737 9.16852 25.3625C9.02343 25.3419 8.93414 25.3775 8.81882 25.4616C8.78347 25.4897 8.76487 25.5122 8.74255 25.5533C8.67187 25.6899 8.66629 26.1183 8.41889 25.8508C8.28868 25.7105 8.24962 25.6132 8.07291 25.4916C7.85155 25.3438 7.64694 25.2035 7.3735 25.1829C7.23585 25.1791 7.10007 25.1773 6.96242 25.1773H6.95312C6.89545 25.1773 6.82105 25.1623 6.79687 25.2278C6.78199 25.2783 6.78943 25.3906 6.79687 25.4467C6.81175 25.544 6.83407 25.6394 6.85267 25.7348C6.87127 25.8321 6.88987 25.9312 6.91033 26.0285C6.93452 26.1464 6.9494 26.2587 6.96056 26.3784C6.96056 26.3803 6.968 26.5131 6.94196 26.4682C6.92335 26.4383 6.88057 26.1801 6.86383 26.1165C6.81919 25.9462 6.77269 25.7647 6.70386 25.6038C6.63504 25.4485 6.55319 25.2558 6.3802 25.1997C6.31696 25.1829 6.13466 25.2091 6.06212 25.2203C5.99516 25.2371 5.96353 25.2633 5.94679 25.3344C5.91331 25.4785 6.0398 25.9107 6.06212 26.0884C6.08816 26.2867 6.04352 26.4401 5.85937 26.2268C5.66591 26.0023 5.58779 25.8134 5.33295 25.6169C5.12276 25.4598 4.97581 25.3737 4.70423 25.4261C4.53496 25.4635 4.36941 25.5028 4.202 25.5477C4.18898 25.5515 4.17596 25.5552 4.1648 25.5589L4.14434 25.5664C4.00483 25.63 4.1276 25.8358 4.17596 25.9256C4.22246 26.0117 4.38801 26.3728 4.15178 26.1352C4.02715 26.0098 3.74813 25.7816 3.56956 25.7647C3.46911 25.7591 3.11197 25.9256 3.00222 25.9743C2.9613 25.993 2.8869 26.021 2.86085 26.0529C2.77715 26.1539 2.99664 26.485 2.80877 26.5355C2.6302 26.5842 2.3735 26.3073 2.10007 26.4645C1.84523 26.6254 1.58295 26.833 1.35974 27.0351L1.35602 27.0369Z" fill="url(#paint16_radial_2_3)"/>
<path fill-rule="evenodd" clip-rule="evenodd" d="M0.466888 27.1249C1.75409 26.7732 4.68936 26.9079 6.13281 27.0351C8.74256 27.2615 12.0331 27.9013 14.4289 28.9602C14.6577 29.0613 14.7861 29.123 15 29.2521C14.7247 29.1698 14.8679 29.2166 14.5982 29.1193C12.8311 28.4775 11.0993 28.0585 9.25037 27.7479C6.88244 27.3494 4.30617 27.0463 1.9122 27.0781C1.43787 27.0837 0.928198 27.1324 0.468749 27.1249H0.466888Z" fill="url(#paint17_radial_2_3)"/>
<path fill-rule="evenodd" clip-rule="evenodd" d="M13.3185 26.4177C12.3456 26.2774 11.4118 25.7834 10.4669 25.1997C9.50149 24.6029 8.58445 23.8676 7.78088 23.0033C7.02753 22.1913 6.2779 21.471 5.53943 20.7339C6.44159 20.3559 7.1038 19.935 7.07961 19.8714C7.05357 19.8059 5.50967 19.7965 4.63728 19.8134C4.20759 19.3644 3.77604 18.8985 3.33519 18.4008C3.01339 18.036 2.68787 17.6487 2.36607 17.2577C2.80692 16.906 3.23661 16.4925 3.22545 16.4121C3.21243 16.3223 2.19494 16.341 1.53274 16.2306C0.957961 15.5196 0.379464 14.8798 0 14.2961C1.32999 13.877 2.48698 13.5926 3.69978 13.4972C4.02158 13.4729 4.3471 13.4598 4.68006 13.4635C5.0651 14.2325 5.45945 15.4523 5.53385 15.4935C5.5971 15.529 5.71615 14.833 5.70685 13.5234C6.26116 13.5795 6.8378 13.6787 7.45164 13.8265C7.69159 14.3428 7.89062 14.8368 7.96131 14.8218C8.01897 14.8087 8.30171 14.4383 8.41518 14.1314C9.10342 14.4008 9.78423 14.7713 10.4148 15.2091C10.891 15.5402 11.3467 15.9144 11.7597 16.3092C11.7132 17.5739 11.5513 19.0557 11.6425 19.138C11.6927 19.1829 12.234 18.5804 12.7772 17.4485C13.67 18.6403 14.1146 19.9949 14.176 21.4448C14.2411 22.9827 13.9025 24.6254 13.3185 26.4158V26.4177Z" fill="#507F19"/>
<path fill-rule="evenodd" clip-rule="evenodd" d="M5.53943 20.7339C6.2779 21.471 7.02753 22.1913 7.78088 23.0033C8.58445 23.8695 9.50335 24.6048 10.4669 25.1997C11.41 25.7834 12.3438 26.2755 13.3185 26.4177C13.4338 21.7198 4.76935 15.0725 0 14.2961C0.379464 14.8817 0.957961 15.5215 1.53274 16.2325C2.19308 16.341 3.21243 16.3241 3.22545 16.4139C3.23661 16.4944 2.80692 16.9079 2.36607 17.2596C2.68787 17.6506 3.01339 18.0379 3.33519 18.4027C3.77604 18.9004 4.20759 19.3662 4.63728 19.8152C5.50967 19.7984 7.05357 19.8059 7.07961 19.8732C7.1038 19.9369 6.44159 20.3578 5.53943 20.7357V20.7339Z" fill="url(#paint18_radial_2_3)"/>
<path fill-rule="evenodd" clip-rule="evenodd" d="M0 14.2961C4.76935 15.0725 13.4338 21.7217 13.3185 26.4177C13.9025 24.6272 14.2429 22.9846 14.176 21.4467C14.1146 19.9967 13.67 18.6422 12.7772 17.4504C12.2359 18.5823 11.6946 19.1848 11.6425 19.1398C11.5513 19.0575 11.7132 17.5758 11.7597 16.311C11.3467 15.9144 10.891 15.5421 10.4148 15.2109C9.78609 14.7732 9.10342 14.4008 8.41518 14.1333C8.30171 14.4383 8.02083 14.8106 7.96131 14.8237C7.89062 14.8386 7.69159 14.3447 7.45164 13.8283C6.8378 13.6805 6.26116 13.5814 5.70685 13.5253C5.71615 14.8368 5.5971 15.5309 5.53385 15.4953C5.45945 15.4542 5.06696 14.2343 4.68006 13.4654C4.3471 13.4616 4.02158 13.4729 3.69978 13.4991C2.48698 13.5926 1.32812 13.8789 0 14.2979L0 14.2961Z" fill="url(#paint19_radial_2_3)"/>
<path style="mix-blend-mode:multiply" fill-rule="evenodd" clip-rule="evenodd" d="M4.28012 18.1239C4.52007 18.3746 4.89582 18.4177 5.22506 18.4401C5.50594 18.457 5.75705 18.3971 6.03235 18.3541C6.11606 18.341 6.49552 18.268 6.54574 18.2755C6.50296 18.3372 5.92074 18.4925 5.80728 18.5318C5.69009 18.573 5.60266 18.6123 5.4799 18.6478C5.35155 18.6852 5.1581 18.7339 5.06509 18.833C5.01301 18.8948 5.02603 18.9434 5.07067 19.0051C5.12833 19.0744 5.20646 19.1492 5.2697 19.2147C6.29835 20.109 7.68228 19.3307 7.98176 19.4654C8.21613 19.5702 7.33444 20.0828 7.28235 20.1183C7.1168 20.2325 6.84336 20.4233 6.79872 20.631C6.795 20.689 6.80988 20.7152 6.83592 20.7619L6.86755 20.8031C7.04984 21.0033 7.41628 21.3531 7.65066 21.4691C8.31658 21.761 9.12759 21.5758 9.79537 21.3775C9.83258 21.3662 10.1879 21.254 10.1748 21.3344C10.1618 21.4224 9.15921 21.8732 9.01226 21.9406C8.82625 22.0304 8.44307 22.1913 8.70162 22.4252L8.7165 22.4383C8.83369 22.5393 9.17223 22.8312 9.295 22.8835C9.65028 23.0145 10.1321 22.8929 10.4985 22.833C10.7757 22.7881 10.5822 22.9172 10.4762 22.9733C10.3701 23.0313 9.91814 23.2353 9.94604 23.3756L9.94976 23.3887C9.97394 23.4448 10.1841 23.5814 10.2437 23.6244C10.3553 23.7049 10.6157 23.9051 10.7292 23.9462C10.9263 24.0117 11.2481 24.0005 11.4602 24.0173C11.8731 24.0491 11.25 24.2231 11.4044 24.3971C11.5011 24.5056 12.2024 24.863 12.3716 24.9434C12.6302 25.065 12.8981 25.1735 13.1771 25.2409C13.0989 24.9228 12.9892 24.601 12.8497 24.2736C11.2611 20.5374 5.94865 16.3653 1.89545 14.8312C1.97171 14.9733 2.05542 15.1193 2.13912 15.2577C2.22469 15.3887 2.34374 15.4224 2.49441 15.4336C2.61345 15.4411 2.69902 15.4167 2.81063 15.413C2.96316 15.4074 2.7604 15.4935 2.73436 15.5047C2.6674 15.5327 2.46836 15.6057 2.43674 15.6637C2.42372 15.6862 2.42558 15.7011 2.43302 15.7236C2.44232 15.7479 2.46464 15.776 2.47952 15.7965C2.52045 15.8583 2.57067 15.9275 2.62089 15.9799C2.93525 16.2362 3.35192 16.1595 3.7165 16.1352C4.34336 16.0921 3.65884 16.5767 3.53049 16.7114C3.43935 16.8087 3.3389 16.9378 3.41516 17.0762C3.59746 17.3307 3.99366 17.2053 4.25036 17.1754C4.37871 17.1604 4.22432 17.2428 4.19455 17.2596C4.10155 17.312 4.0011 17.3644 3.90624 17.4149C3.77789 17.4804 3.61048 17.5327 3.47097 17.5814C3.404 17.6038 3.16591 17.66 3.39656 17.6768C3.49887 17.6843 3.59188 17.6749 3.69976 17.6862C3.77975 17.6955 3.87647 17.7086 3.9453 17.7516C4.0011 17.7891 4.04946 17.8583 4.09225 17.9107C4.15363 17.9836 4.21688 18.0547 4.28012 18.1258V18.1239Z" fill="url(#paint20_radial_2_3)"/>
<path style="mix-blend-mode:multiply" fill-rule="evenodd" clip-rule="evenodd" d="M1.89731 14.8293C5.9505 16.3634 11.263 20.5374 12.8515 24.2717C12.965 23.9331 13.0673 23.5664 13.1268 23.2147C13.205 22.747 13.0004 22.4196 13.0059 21.9874C13.0078 21.7666 13.0636 21.7722 13.1436 21.6169C13.2515 21.4093 13.0431 20.6721 12.9743 20.4439L12.9464 20.3541C12.885 20.1595 12.7027 19.4897 12.4442 19.5065C12.1261 19.5253 11.423 20.6048 11.3876 19.6693C11.3635 19.0295 11.5234 18.5281 11.3188 17.8527C11.2611 17.7142 11.1942 17.5964 11.103 17.4785C11.0435 17.3999 10.9319 17.2521 10.837 17.2334H10.8129C10.5971 17.2428 10.4241 17.9443 10.3701 18.137C10.3571 18.1838 10.1302 18.9752 10.1711 18.5C10.2306 17.8152 10.3162 17.1791 9.94604 16.5505C9.87908 16.4514 9.76561 16.3559 9.67074 16.283C9.6261 16.2474 9.54611 16.1819 9.49403 16.1707C9.43637 16.1632 9.40102 16.1969 9.36754 16.2399C9.29128 16.3391 9.15921 16.6721 9.11643 16.8068C9.01598 17.1118 9.0383 16.8349 9.06062 16.7114C9.10341 16.4701 9.14619 16.3616 9.09411 16.1071C9.0383 15.8601 8.96204 15.8358 8.75742 15.7329C8.69046 15.703 8.63838 15.6918 8.56583 15.7011C8.52491 15.7086 8.48585 15.718 8.44678 15.7329C8.19939 15.8433 8.13986 16.1501 8.08406 16.3896C8.07662 16.4177 7.93711 17.0688 7.87573 16.8686C7.85341 16.7956 7.86085 16.5037 7.85341 16.4008C7.83108 16.0884 7.81992 15.8938 7.65437 15.6169C7.41814 15.2278 7.49626 15.1305 7.03123 14.9584C6.69083 14.8349 6.49924 14.7376 6.29091 15.1249C6.15512 15.3775 5.89098 16.4046 5.47803 15.9537C4.97952 15.4111 5.13391 14.4719 4.14805 14.3073C3.97506 14.2886 3.6607 14.2549 3.49515 14.2643L3.45423 14.2736L3.43748 14.283C3.37052 14.3316 3.39656 14.4682 3.41144 14.5374C3.4412 14.6665 3.48213 14.7825 3.50631 14.9172C3.54165 15.1137 3.48957 15.1604 3.36866 14.9827C3.27007 14.8368 3.21613 14.7301 3.08964 14.5935C2.91851 14.4158 2.77342 14.2886 2.51672 14.2886C2.03867 14.3185 1.49552 14.4139 1.03421 14.5374C1.31509 14.6197 1.60527 14.7189 1.90103 14.8312L1.89731 14.8293Z" fill="url(#paint21_radial_2_3)"/>
<path fill-rule="evenodd" clip-rule="evenodd" d="M-1.45321e-06 14.2961C2.07589 14.399 5.27158 16.2605 6.99219 17.486C9.38988 19.1922 12.6376 22.2979 13.2552 25.2689C13.3408 25.6843 13.3724 25.9949 13.3185 26.4177L13.2626 25.9761C12.9836 23.9256 11.3914 21.9238 9.95908 20.485C7.8218 18.3354 4.72284 16.0772 1.91406 14.9303C1.22768 14.6497 0.684522 14.5131 -0.00186157 14.2961H-1.45321e-06Z" fill="url(#paint22_radial_2_3)"/>
</g>
<g clip-path="url(#clip1_2_3)">
<path fill-rule="evenodd" clip-rule="evenodd" d="M37.4301 8.95463C37.5212 9.00327 37.9881 9.02011 38.468 8.18756C38.9498 7.355 39.6771 5.12862 39.4948 5.03134C39.3125 4.93405 37.8914 6.79186 37.4766 7.65996C37.0618 8.52806 37.3371 8.90599 37.4301 8.9565V8.95463Z" fill="#AF8F2B"/>
<path fill-rule="evenodd" clip-rule="evenodd" d="M37.4301 8.95463C37.8188 8.53555 39.0595 5.95182 39.4948 5.02947C39.6771 5.12675 38.9498 7.35313 38.468 8.18569C37.9863 9.02011 37.5212 9.00327 37.4301 8.95276V8.95463Z" fill="url(#paint23_radial_2_3)"/>
<path fill-rule="evenodd" clip-rule="evenodd" d="M39.4948 5.02947C39.0577 5.95182 37.8188 8.53555 37.43 8.95463C37.337 8.90599 37.0617 8.52806 37.4766 7.65809C37.8914 6.78999 39.3125 4.93218 39.4948 5.02947Z" fill="url(#paint24_radial_2_3)"/>
<path fill-rule="evenodd" clip-rule="evenodd" d="M37.099 10.8985C37.1938 11.0313 37.9007 11.3344 39.4594 10.2811C41.0164 9.22778 44.3125 6.08466 44.1228 5.82086C43.933 5.55519 39.9208 7.69738 38.4327 8.84612C36.9446 9.99486 37.0041 10.7657 37.099 10.8985Z" fill="#AF8F2B"/>
<path fill-rule="evenodd" clip-rule="evenodd" d="M37.099 10.8985C38.109 10.4551 42.5472 7.04256 44.1228 5.82086C44.3125 6.08653 41.0164 9.22778 39.4594 10.2811C37.9025 11.3344 37.1957 11.0313 37.1008 10.8985H37.099Z" fill="url(#paint25_radial_2_3)"/>
<path fill-rule="evenodd" clip-rule="evenodd" d="M44.1228 5.82086C42.5473 7.04256 38.109 10.4551 37.099 10.8985C37.0041 10.7657 36.9427 9.99486 38.4327 8.84612C39.9208 7.69738 43.933 5.55519 44.1228 5.82086Z" fill="url(#paint26_radial_2_3)"/>
<path fill-rule="evenodd" clip-rule="evenodd" d="M36.9297 9.75164C37.0766 9.78531 37.7649 9.49158 38.2615 7.49719C38.7582 5.50281 39.2679 0.565482 38.9758 0.5C38.6838 0.434518 37.0655 5.12301 36.6748 7.14172C36.2842 9.16043 36.7846 9.71796 36.9315 9.75164H36.9297Z" fill="#AF8F2B"/>
<path fill-rule="evenodd" clip-rule="evenodd" d="M36.9297 9.75164C37.3947 8.64593 38.5666 2.64032 38.9758 0.5C39.2679 0.565482 38.7582 5.50281 38.2615 7.49719C37.7649 9.49158 37.0785 9.78531 36.9297 9.75164Z" fill="url(#paint27_radial_2_3)"/>
<path fill-rule="evenodd" clip-rule="evenodd" d="M38.9758 0.5C38.5666 2.64032 37.3947 8.64593 36.9316 9.75164C36.7846 9.71796 36.2842 9.16043 36.6749 7.14172C37.0655 5.12488 38.6819 0.434518 38.9758 0.5Z" fill="url(#paint28_radial_2_3)"/>
<path fill-rule="evenodd" clip-rule="evenodd" d="M37.058 10.0379C37.151 10.1183 37.7556 10.1688 38.8772 8.92095C39.9989 7.67306 42.2589 4.30917 42.0748 4.15014C41.8906 3.99111 38.9312 6.75444 37.8784 8.05847C36.8237 9.36436 36.9669 9.95744 37.0599 10.0379H37.058Z" fill="#AF8F2B"/>
<path fill-rule="evenodd" clip-rule="evenodd" d="M37.058 10.0379C37.8151 9.41862 40.9587 5.53648 42.0729 4.15014C42.2571 4.30917 39.997 7.67306 38.8754 8.92095C37.7537 10.1688 37.1492 10.1183 37.0562 10.0379H37.058Z" fill="url(#paint29_radial_2_3)"/>
<path fill-rule="evenodd" clip-rule="evenodd" d="M42.0729 4.15014C40.9587 5.53648 37.8151 9.41861 37.058 10.0379C36.965 9.95744 36.8218 9.36436 37.8765 8.05847C38.9312 6.75257 41.8888 3.98924 42.0729 4.14827V4.15014Z" fill="url(#paint30_radial_2_3)"/>
<path fill-rule="evenodd" clip-rule="evenodd" d="M36.9576 16.2755C36.2712 14.9228 36.2359 13.5421 36.647 12.4065C36.9278 12.6403 37.3873 13.1006 37.4375 13.0837C37.4598 13.0762 37.1139 12.4738 36.8367 11.963C36.9762 11.6843 37.1157 11.4149 37.2608 11.1548C37.4803 11.3157 37.6607 11.4111 37.6961 11.3962C37.7333 11.3793 37.6421 10.9546 37.5621 10.6478C37.8467 10.1988 38.1648 9.77409 38.5536 9.36249C38.8605 9.84331 39.1879 10.21 39.2121 10.2007C39.2362 10.1913 39.0149 9.40365 38.9647 8.95837C39.3311 8.62161 39.7831 8.30168 40.2686 8.02853C40.4286 8.4102 40.5662 8.56735 40.5923 8.57858C40.6146 8.5898 40.5979 8.0884 40.6258 7.83957C41.1075 7.60009 41.6098 7.40926 42.0878 7.29701C42.2608 7.87138 42.3594 8.39336 42.3761 8.95837C41.8088 9.29514 41.314 9.44481 41.301 9.49158C41.2935 9.51964 41.699 9.58513 42.3687 9.51029C42.3501 9.83957 42.3054 10.1913 42.2329 10.5804C42.0339 10.6721 41.5967 10.7058 41.5912 10.7264C41.5874 10.7432 41.8162 10.7993 42.1864 10.8199C42.1046 11.2222 41.9669 11.6506 41.7939 12.0809C41.2043 12.2437 40.4937 12.2886 40.4825 12.341C40.4769 12.3672 40.7987 12.543 41.5298 12.6833C41.2768 13.2203 40.9848 13.7404 40.7002 14.195C40.5253 14.4738 40.3393 14.7208 40.1384 14.9378C39.452 15.0369 38.8233 15.065 38.8214 15.0893C38.8214 15.1286 39.2493 15.2521 39.6604 15.3812C38.9275 15.9612 38.0365 16.2381 36.9576 16.2755Z" fill="#507F19"/>
<path fill-rule="evenodd" clip-rule="evenodd" d="M36.9576 16.2755C38.2839 13.37 40.2872 9.84705 42.0859 7.29701C41.6079 7.41113 41.1057 7.60009 40.6239 7.83957C40.596 8.0884 40.6127 8.5898 40.5904 8.57858C40.5662 8.56548 40.4267 8.4102 40.2667 8.02853C39.7794 8.30168 39.3274 8.62161 38.9628 8.95837C39.013 9.40365 39.2344 10.1932 39.2102 10.2007C39.186 10.21 38.8586 9.84144 38.5517 9.36249C38.1629 9.77409 37.8449 10.1988 37.5603 10.6478C37.6403 10.9546 37.7314 11.3793 37.6942 11.3962C37.6589 11.4111 37.4784 11.3157 37.2589 11.1548C37.1138 11.4149 36.9743 11.6824 36.8348 11.963C37.112 12.4757 37.458 13.0762 37.4356 13.0837C37.3836 13.1006 36.926 12.6422 36.6451 12.4065C36.234 13.5421 36.2675 14.921 36.9557 16.2755H36.9576Z" fill="url(#paint31_radial_2_3)"/>
<path fill-rule="evenodd" clip-rule="evenodd" d="M42.0878 7.29701C40.2891 9.84518 38.2839 13.37 36.9595 16.2755C38.0402 16.2362 38.9293 15.9612 39.6622 15.3812C39.2493 15.2521 38.8214 15.1286 38.8233 15.0893C38.8233 15.065 39.4539 15.0369 40.1403 14.9378C40.3412 14.7208 40.5272 14.4738 40.702 14.195C40.9866 13.7404 41.2787 13.2203 41.5316 12.6833C40.7987 12.5449 40.4788 12.3672 40.4844 12.341C40.4956 12.2886 41.2061 12.2437 41.7958 12.0809C41.9688 11.6506 42.1064 11.2222 42.1883 10.8199C41.8162 10.7993 41.5893 10.7451 41.593 10.7264C41.5986 10.7058 42.0357 10.6721 42.2348 10.5804C42.3054 10.1913 42.3501 9.83957 42.3706 9.51029C41.7009 9.58513 41.2954 9.51964 41.3028 9.49158C41.3159 9.44294 41.8107 9.29514 42.378 8.95837C42.3612 8.39336 42.2627 7.87325 42.0897 7.29701H42.0878Z" fill="url(#paint32_radial_2_3)"/>
<path style="mix-blend-mode:multiply" fill-rule="evenodd" clip-rule="evenodd" d="M37.4487 15.2353C38.6298 12.8068 40.1793 10.1015 41.6451 7.93686C41.699 7.85828 41.7511 7.78157 41.8032 7.70299C41.5242 7.82273 40.8936 8.0884 40.7652 8.36716C40.6648 8.58419 40.7392 9.04818 40.6518 9.02947C40.5272 9.00327 40.3318 8.58793 40.0007 8.76754C39.8482 8.84986 39.7943 9.01076 39.7533 9.16978C39.7236 9.28391 39.7236 9.413 39.6994 9.529C39.6529 9.75912 39.5376 9.47474 39.4613 9.42423C39.4036 9.38681 39.2958 9.40739 39.2585 9.46726C39.1711 9.60383 39.2213 9.81899 39.2585 9.96679C39.2734 10.0323 39.3869 10.3971 39.3013 10.4158C39.1841 10.442 38.9609 9.90505 38.7842 10.0005C38.6708 10.0622 38.6987 10.1539 38.7061 10.2624C38.7154 10.4383 38.5945 10.2886 38.5387 10.2998C38.5164 10.3036 38.4996 10.3335 38.4866 10.3503C38.4699 10.3709 38.4531 10.3915 38.4382 10.4139C38.3341 10.5674 38.362 10.7638 38.375 10.9378C38.3862 11.0968 38.349 11.0987 38.269 10.9659C38.2429 10.9247 38.1778 10.805 38.1183 10.8592C38.0941 10.8817 38.0625 10.9359 38.0439 10.9677C38.0178 11.0126 37.9881 11.0594 37.9751 11.1099C37.923 11.3269 38.0216 11.6188 38.0662 11.8358C38.0811 11.9125 38.1034 12.1071 37.9658 12.0285C37.8095 11.9312 37.6867 11.7928 37.551 11.6693C37.3928 11.5253 37.4077 11.645 37.4487 11.776C37.4896 11.9051 37.5007 11.9425 37.4524 12.0734C37.4356 12.1165 37.4282 12.1501 37.4226 12.195C37.4226 12.2119 37.4208 12.2268 37.4189 12.2437V12.2717C37.4115 12.4906 37.4914 12.717 37.5621 12.921C37.5975 13.0257 37.7295 13.312 37.696 13.4074C37.6551 13.5234 37.5472 13.486 37.4542 13.4523C37.2385 13.3756 37.0599 13.2802 36.9632 13.5702C36.872 13.8396 36.9167 14.0659 37.0004 14.3297C37.0506 14.4832 37.1324 14.6908 37.0841 14.848C37.0338 15.007 37.058 15.05 37.099 15.2109C37.1399 15.3681 37.1882 15.5178 37.2422 15.6693C37.311 15.5253 37.3817 15.3775 37.4524 15.2315L37.4487 15.2353Z" fill="url(#paint33_radial_2_3)"/>
<path style="mix-blend-mode:multiply" fill-rule="evenodd" clip-rule="evenodd" d="M41.6451 7.93873C40.1793 10.1015 38.6298 12.8087 37.4487 15.2371C37.6812 15.2297 37.8914 15.1997 38.1127 15.1342C38.2262 15.0987 38.3341 15.0538 38.4457 15.0126C39.3199 14.7002 38.5238 14.7993 38.5926 14.6441C38.6968 14.543 39.5227 14.2961 39.7236 14.2268C39.8017 14.2007 39.9766 14.1408 40.0175 14.0716C40.0956 13.9425 39.5599 13.8396 39.9989 13.6001C40.276 13.4485 40.3132 13.4224 40.49 13.1548C40.4974 13.1417 40.503 13.1286 40.5104 13.1155C40.5606 13.0313 40.7095 13.0089 40.7969 12.9846C40.8862 12.9602 41.0108 12.906 40.8304 12.8798C40.715 12.863 40.6127 12.8517 40.4993 12.8218C40.423 12.8012 40.33 12.7732 40.2574 12.747C40.1514 12.7077 40.0138 12.6665 39.9152 12.6179C39.3795 12.3391 40.3746 12.1838 40.5327 12.1464C40.7541 12.094 40.994 12.036 41.1429 11.8489L41.154 11.834C41.2452 11.7198 41.1931 11.6993 41.0815 11.6768C41.0554 11.6712 40.8397 11.645 40.9661 11.6001C41.0238 11.5795 41.0778 11.5683 41.1354 11.5421C41.2433 11.4953 41.327 11.4579 41.3754 11.3419C41.3996 11.2783 41.4386 11.1904 41.4107 11.1249C41.2786 10.9153 40.8657 11.0033 40.7095 10.9079C40.5978 10.8405 40.7987 10.7657 40.8471 10.7507C41.0666 10.6796 41.4405 10.5992 41.5967 10.4326C41.6656 10.3485 41.686 10.195 41.7009 10.0884C41.7028 10.0734 41.7065 10.0566 41.7102 10.0416C41.7604 9.90131 41.9613 9.88447 42.0766 9.80215C42.1882 9.7217 41.9725 9.7217 41.9353 9.7217C41.7362 9.71796 41.5391 9.67119 41.3456 9.6319C41.2824 9.6188 41.1559 9.60009 41.1447 9.52152C41.1373 9.43171 41.4051 9.29888 41.474 9.25585C41.6246 9.16604 41.7716 9.09869 41.7827 8.90412C41.7827 8.86108 41.7827 8.81618 41.779 8.77315C41.779 8.75631 41.779 8.73012 41.7697 8.71515C41.7455 8.6609 41.6172 8.70019 41.5856 8.63845C41.5502 8.57109 41.7121 8.4869 41.7288 8.37652C41.7344 8.31478 41.6637 8.01731 41.6432 7.93873H41.6451Z" fill="url(#paint34_radial_2_3)"/>
<path fill-rule="evenodd" clip-rule="evenodd" d="M42.0878 7.29701C41.8906 7.66932 41.5949 8.09214 41.3661 8.45697C40.6871 9.53648 40.0696 10.5992 39.4408 11.7067C38.8065 12.8237 38.1983 13.8994 37.6068 15.0426C37.4059 15.4317 37.1845 15.9107 36.9595 16.2755C37.0153 16.0996 36.9929 16.1595 37.0618 15.9892C37.497 14.9303 38.0718 13.7984 38.6075 12.7844C39.3144 11.4448 40.0789 10.1819 40.9159 8.92095C41.234 8.44387 41.7121 7.70861 42.0878 7.29701Z" fill="url(#paint35_radial_2_3)"/>
<path fill-rule="evenodd" clip-rule="evenodd" d="M34 29.2521C35.2407 30.2568 36.965 30.6085 38.6019 30.4719C37.9714 29.7703 37.5975 29.0182 37.6105 28.9434C37.6161 28.9079 38.5387 29.7404 39.4334 30.3597C40.1551 30.2231 40.8415 30.0959 41.5223 29.9687C41.3549 29.5084 41.2619 29.065 41.314 29.0295C41.3586 28.9995 42.1064 29.3999 42.7016 29.7442C43.6763 29.5458 44.6696 29.3007 45.6109 28.9378C45.3969 28.5168 45.0938 27.8358 45.1328 27.7797C45.1719 27.7254 45.955 28.3466 46.4702 28.5636C47.2236 28.195 47.9249 27.7273 48.5312 27.1249C48.189 26.6964 47.83 26.3279 47.4487 26.0098C46.9669 26.167 46.5465 26.2699 46.5391 26.225C46.5279 26.152 46.6451 25.8527 46.8199 25.5402C46.2191 25.1398 45.5569 24.8274 44.8073 24.5599C44.1953 24.934 43.4159 25.8134 43.3434 25.761C43.2969 25.7254 43.3434 25.1698 43.8084 24.2418C43.1406 24.0491 42.4022 23.9481 41.6432 23.9369C41.3103 24.3578 40.968 24.7657 40.8824 24.7451C40.8192 24.7301 40.676 24.4214 40.6202 23.9761C39.1953 24.1071 37.7742 24.5524 36.6767 25.3176C36.2228 26.2643 35.8397 27.2315 35.7801 27.2184C35.7355 27.2091 35.702 26.747 35.7615 26.1183C35.0082 26.9546 34.279 28.1445 34.0019 29.254L34 29.2521Z" fill="#507F19"/>
<path fill-rule="evenodd" clip-rule="evenodd" d="M41.5242 29.9687C40.8434 30.0959 40.157 30.2231 39.4353 30.3597C38.5406 29.7404 37.6179 28.9079 37.6124 28.9434C37.5993 29.0182 37.9732 29.7703 38.6038 30.4719C36.965 30.6085 35.2407 30.2568 34.0019 29.2521C38.0458 27.4298 45.1105 26.6628 48.5331 27.1268C47.9267 27.7311 47.2254 28.1969 46.4721 28.5655C45.9568 28.3485 45.1719 27.7273 45.1347 27.7816C45.0956 27.8358 45.4007 28.5187 45.6127 28.9397C44.6715 29.3026 43.6782 29.5477 42.7035 29.746C42.1083 29.4018 41.3605 29.0014 41.3158 29.0313C41.2638 29.0669 41.3568 29.5103 41.5242 29.9705V29.9687Z" fill="url(#paint36_radial_2_3)"/>
<path fill-rule="evenodd" clip-rule="evenodd" d="M48.5331 27.1249C45.1086 26.6628 38.0458 27.428 34.0019 29.2502C34.279 28.1408 35.0082 26.9509 35.7615 26.1146C35.702 26.7432 35.7355 27.2072 35.7801 27.2147C35.8397 27.2259 36.2247 26.2605 36.6767 25.3138C37.7742 24.5486 39.1953 24.1034 40.6202 23.9724C40.676 24.4177 40.8192 24.7264 40.8824 24.7413C40.968 24.7619 41.3121 24.3559 41.6432 23.9331C42.4022 23.9443 43.1406 24.0454 43.8084 24.2381C43.3434 25.1679 43.2969 25.7236 43.3434 25.7572C43.4159 25.8115 44.1953 24.9322 44.8073 24.5561C45.5569 24.8237 46.2191 25.1361 46.8199 25.5365C46.6451 25.8489 46.5279 26.1483 46.5391 26.2212C46.5465 26.2661 46.9669 26.1632 47.4487 26.0061C47.83 26.326 48.189 26.6927 48.5313 27.1211L48.5331 27.1249Z" fill="url(#paint37_radial_2_3)"/>
<path style="mix-blend-mode:multiply" fill-rule="evenodd" clip-rule="evenodd" d="M37.1808 29.5215C36.7009 29.5103 36.154 29.4523 35.6871 29.3475C35.6369 29.3363 35.5867 29.3232 35.5383 29.3101C35.2612 29.2353 34.9729 29.1268 34.7496 28.9397C38.5182 27.4785 44.2344 26.8068 47.6477 27.037C47.5584 27.1024 47.2403 27.3326 47.1511 27.3475C46.8981 27.37 46.5502 27.1286 46.4609 27.1417C46.3605 27.1567 46.5819 27.3999 46.6042 27.428C46.6488 27.4878 46.7065 27.5702 46.6377 27.6338C46.6135 27.6487 46.5688 27.6693 46.5409 27.6805C46.4312 27.7311 46.3196 27.7797 46.208 27.8265C45.676 28.0098 45.263 27.6731 44.865 27.3625C44.4018 26.9977 44.6901 27.5851 44.7534 27.7891C44.8352 28.0529 44.9077 28.4177 44.5153 28.137C44.3534 28.0192 44.2307 27.9088 44.093 27.7647C43.8996 27.5645 44.0372 27.7685 44.0893 27.8545C44.1507 27.9556 44.2121 28.0491 44.2772 28.1501C44.3237 28.2287 44.4111 28.3784 44.3609 28.4682C44.3404 28.4925 44.2716 28.5056 44.24 28.515C44.0595 28.5674 43.8772 28.616 43.6931 28.6609C43.3285 28.7301 43.0476 28.573 42.7128 28.4645C42.4152 28.3672 42.2943 28.2568 42.045 28.1052C41.9706 28.0603 41.9539 28.0884 41.9985 28.1576C42.1064 28.3297 42.4803 28.6703 42.5175 28.8162C42.5231 28.8405 42.5231 28.848 42.5175 28.8723C42.4915 28.9715 42.2701 28.9864 42.1845 28.9958C42.1287 29.0033 42.0748 29.007 42.019 29.007C41.2582 28.9284 40.8713 28.0847 40.702 28.1109C40.5886 28.1277 40.7374 28.5767 40.7597 28.6703C40.8118 28.8929 40.8639 29.1866 40.5867 29.2727C40.4583 29.3007 40.3058 29.3363 40.1775 29.3045C39.8984 29.2297 39.6864 29.0014 39.4929 28.7956C39.4595 28.7601 39.2381 28.5056 39.2139 28.5C39.16 28.4888 39.3572 28.8368 39.3665 28.8573C39.4185 28.9565 39.5785 29.2858 39.5394 29.3775C39.4929 29.4392 39.2567 29.4429 39.1767 29.4317C39.0279 29.4074 38.894 29.3513 38.7749 29.2558C38.7452 29.2315 38.5778 29.0819 38.5573 29.0819C38.5424 29.0819 38.561 29.1118 38.5647 29.1174C38.5926 29.166 38.7415 29.3644 38.6931 29.4055C38.654 29.4411 38.5238 29.3793 38.4829 29.3606C38.0979 29.196 37.8542 28.9434 37.5566 28.6609C37.2217 28.3447 37.2273 28.5786 37.3371 28.8742C37.3854 29.0033 37.5807 29.3737 37.4543 29.4729C37.3929 29.5215 37.2589 29.5159 37.1827 29.514L37.1808 29.5215Z" fill="url(#paint38_radial_2_3)"/>
<path style="mix-blend-mode:multiply" fill-rule="evenodd" clip-rule="evenodd" d="M47.644 27.0369C44.2307 26.8068 38.5145 27.4785 34.7459 28.9397C34.6603 28.9733 34.5748 29.007 34.4911 29.0407C34.6659 28.6478 34.8724 28.2848 35.1365 27.9462C35.4342 27.5645 35.3728 28.0229 35.6685 27.6824C35.9773 27.3288 36.1243 26.949 36.5167 26.6609L36.5484 26.6384C36.6023 26.601 36.6563 26.5636 36.7121 26.5299C36.9278 26.4046 36.8534 26.6291 37.0339 26.4794C37.1362 26.3952 37.2366 26.3148 37.3408 26.2325C37.5752 26.0472 37.6737 26.0117 37.949 25.9013C37.9918 25.8845 38.0383 25.8639 38.0792 25.8489C38.1369 25.834 38.1909 25.8283 38.2392 25.8695L38.2653 25.8994C38.3657 26.0472 38.3545 26.5674 38.375 26.7769C38.388 26.9022 38.4308 27.1118 38.4885 26.8517C38.561 26.5243 38.5313 26.3466 38.6949 26.021C38.9368 25.5496 39.1116 25.5103 39.6008 25.4093C39.6752 25.3924 39.7571 25.3737 39.8315 25.3625C39.9766 25.3419 40.0659 25.3775 40.1812 25.4616C40.2165 25.4897 40.2351 25.5122 40.2574 25.5533C40.3281 25.6899 40.3337 26.1183 40.5811 25.8508C40.7113 25.7105 40.7504 25.6132 40.9271 25.4916C41.1484 25.3438 41.3531 25.2035 41.6265 25.1829C41.7641 25.1791 41.8999 25.1773 42.0376 25.1773H42.0469C42.1045 25.1773 42.179 25.1623 42.2031 25.2278C42.218 25.2783 42.2106 25.3905 42.2031 25.4467C42.1883 25.544 42.1659 25.6394 42.1473 25.7348C42.1287 25.8321 42.1101 25.9312 42.0897 26.0285C42.0655 26.1464 42.0506 26.2587 42.0394 26.3784C42.0394 26.3803 42.032 26.5131 42.058 26.4682C42.0766 26.4383 42.1194 26.1801 42.1362 26.1165C42.1808 25.9462 42.2273 25.7647 42.2961 25.6038C42.365 25.4485 42.4468 25.2558 42.6198 25.1997C42.683 25.1829 42.8653 25.2091 42.9379 25.2203C43.0048 25.2371 43.0365 25.2633 43.0532 25.3344C43.0867 25.4785 42.9602 25.9107 42.9379 26.0884C42.9118 26.2867 42.9565 26.4401 43.1406 26.2268C43.3341 26.0023 43.4122 25.8134 43.667 25.6169C43.8772 25.4598 44.0242 25.3737 44.2958 25.4261C44.465 25.4635 44.6306 25.5028 44.798 25.5477C44.811 25.5514 44.824 25.5552 44.8352 25.5589L44.8557 25.5664C44.9952 25.63 44.8724 25.8358 44.824 25.9256C44.7775 26.0117 44.612 26.3728 44.8482 26.1352C44.9729 26.0098 45.2519 25.7816 45.4304 25.7647C45.5309 25.7591 45.888 25.9256 45.9978 25.9743C46.0387 25.993 46.1131 26.021 46.1391 26.0529C46.2229 26.1539 46.0034 26.485 46.1912 26.5355C46.3698 26.5842 46.6265 26.3073 46.8999 26.4645C47.1548 26.6253 47.417 26.833 47.6403 27.0351L47.644 27.0369Z" fill="url(#paint39_radial_2_3)"/>
<path fill-rule="evenodd" clip-rule="evenodd" d="M48.5331 27.1249C47.2459 26.7732 44.3106 26.9079 42.8672 27.0351C40.2574 27.2615 36.9669 27.9013 34.5711 28.9602C34.3423 29.0613 34.2139 29.123 34 29.2521C34.2753 29.1698 34.1321 29.2166 34.4018 29.1193C36.1689 28.4775 37.9007 28.0585 39.7496 27.7479C42.1176 27.3494 44.6938 27.0463 47.0878 27.0781C47.5621 27.0837 48.0718 27.1324 48.5313 27.1249H48.5331Z" fill="url(#paint40_radial_2_3)"/>
<path fill-rule="evenodd" clip-rule="evenodd" d="M35.6815 26.4177C36.6544 26.2774 37.5882 25.7834 38.5331 25.1997C39.4985 24.6029 40.4156 23.8676 41.2191 23.0033C41.9725 22.1913 42.7221 21.471 43.4606 20.7339C42.5584 20.3559 41.8962 19.935 41.9204 19.8714C41.9464 19.8059 43.4903 19.7965 44.3627 19.8134C44.7924 19.3644 45.224 18.8985 45.6648 18.4008C45.9866 18.036 46.3121 17.6487 46.6339 17.2577C46.1931 16.906 45.7634 16.4925 45.7746 16.4121C45.7876 16.3223 46.8051 16.341 47.4673 16.2306C48.042 15.5196 48.6205 14.8798 49 14.2961C47.67 13.877 46.513 13.5926 45.3002 13.4972C44.9784 13.4729 44.6529 13.4598 44.3199 13.4635C43.9349 14.2325 43.5406 15.4523 43.4661 15.4935C43.4029 15.529 43.2839 14.833 43.2932 13.5234C42.7388 13.5795 42.1622 13.6787 41.5484 13.8265C41.3084 14.3428 41.1094 14.8368 41.0387 14.8218C40.981 14.8087 40.6983 14.4383 40.5848 14.1314C39.8966 14.4008 39.2158 14.7713 38.5852 15.2091C38.109 15.5402 37.6533 15.9144 37.2403 16.3092C37.2868 17.5739 37.4487 19.0557 37.3575 19.138C37.3073 19.1829 36.766 18.5804 36.2228 17.4486C35.33 18.6403 34.8854 19.9949 34.824 21.4448C34.7589 22.9827 35.0975 24.6254 35.6815 26.4158V26.4177Z" fill="#507F19"/>
<path fill-rule="evenodd" clip-rule="evenodd" d="M43.4606 20.7339C42.7221 21.471 41.9725 22.1913 41.2191 23.0033C40.4156 23.8695 39.4967 24.6048 38.5331 25.1997C37.59 25.7834 36.6562 26.2755 35.6815 26.4177C35.5662 21.7198 44.2307 15.0725 49 14.2961C48.6205 14.8817 48.042 15.5215 47.4673 16.2325C46.8069 16.341 45.7876 16.3241 45.7746 16.4139C45.7634 16.4944 46.1931 16.9079 46.6339 17.2596C46.3121 17.6506 45.9866 18.0379 45.6648 18.4027C45.224 18.9004 44.7924 19.3662 44.3627 19.8152C43.4903 19.7984 41.9464 19.8059 41.9204 19.8732C41.8962 19.9369 42.5584 20.3578 43.4606 20.7357V20.7339Z" fill="url(#paint41_radial_2_3)"/>
<path fill-rule="evenodd" clip-rule="evenodd" d="M49 14.2961C44.2307 15.0725 35.5662 21.7217 35.6815 26.4177C35.0975 24.6272 34.7571 22.9846 34.824 21.4467C34.8854 19.9967 35.33 18.6422 36.2228 17.4504C36.7641 18.5823 37.3054 19.1848 37.3575 19.1398C37.4487 19.0575 37.2868 17.5758 37.2403 16.311C37.6533 15.9144 38.109 15.5421 38.5852 15.2109C39.2139 14.7732 39.8966 14.4008 40.5848 14.1333C40.6983 14.4383 40.9792 14.8106 41.0387 14.8237C41.1094 14.8386 41.3084 14.3447 41.5484 13.8283C42.1622 13.6805 42.7388 13.5814 43.2932 13.5253C43.2839 14.8368 43.4029 15.5309 43.4661 15.4953C43.5406 15.4542 43.933 14.2343 44.3199 13.4654C44.6529 13.4616 44.9784 13.4729 45.3002 13.4991C46.513 13.5926 47.6719 13.8789 49 14.2979V14.2961Z" fill="url(#paint42_radial_2_3)"/>
<path style="mix-blend-mode:multiply" fill-rule="evenodd" clip-rule="evenodd" d="M44.7199 18.1239C44.4799 18.3746 44.1042 18.4177 43.7749 18.4401C43.4941 18.457 43.2429 18.3971 42.9676 18.3541C42.8839 18.341 42.5045 18.268 42.4543 18.2755C42.497 18.3372 43.0793 18.4925 43.1927 18.5318C43.3099 18.573 43.3973 18.6123 43.5201 18.6478C43.6485 18.6852 43.8419 18.7339 43.9349 18.833C43.987 18.8948 43.974 18.9434 43.9293 19.0051C43.8717 19.0744 43.7935 19.1492 43.7303 19.2147C42.7017 20.109 41.3177 19.3307 41.0182 19.4654C40.7839 19.5702 41.6656 20.0828 41.7176 20.1183C41.8832 20.2325 42.1566 20.4233 42.2013 20.631C42.205 20.689 42.1901 20.7152 42.1641 20.7619L42.1325 20.8031C41.9502 21.0033 41.5837 21.3531 41.3493 21.4691C40.6834 21.761 39.8724 21.5758 39.2046 21.3775C39.1674 21.3662 38.8121 21.254 38.8252 21.3344C38.8382 21.4224 39.8408 21.8732 39.9877 21.9406C40.1737 22.0304 40.5569 22.1913 40.2984 22.4252L40.2835 22.4383C40.1663 22.5393 39.8278 22.8312 39.705 22.8835C39.3497 23.0145 38.8679 22.8929 38.5015 22.833C38.2243 22.7881 38.4178 22.9172 38.5238 22.9733C38.6299 23.0313 39.0819 23.2353 39.054 23.3756L39.0502 23.3887C39.0261 23.4448 38.8159 23.5814 38.7563 23.6244C38.6447 23.7049 38.3843 23.9051 38.2708 23.9462C38.0737 24.0117 37.7519 24.0005 37.5398 24.0173C37.1269 24.0491 37.75 24.2231 37.5956 24.3971C37.4989 24.5056 36.7976 24.863 36.6284 24.9434C36.3698 25.065 36.1019 25.1735 35.8229 25.2409C35.9011 24.9228 36.0108 24.601 36.1503 24.2736C37.7389 20.5374 43.0514 16.3653 47.1046 14.8312C47.0283 14.9733 46.9446 15.1193 46.8609 15.2577C46.7753 15.3887 46.6563 15.4224 46.5056 15.4336C46.3865 15.4411 46.301 15.4167 46.1894 15.413C46.0368 15.4074 46.2396 15.4935 46.2656 15.5047C46.3326 15.5327 46.5316 15.6057 46.5633 15.6637C46.5763 15.6862 46.5744 15.7011 46.567 15.7236C46.5577 15.7479 46.5354 15.776 46.5205 15.7965C46.4796 15.8583 46.4293 15.9275 46.3791 15.9799C46.0647 16.2362 45.6481 16.1595 45.2835 16.1352C44.6566 16.0921 45.3412 16.5767 45.4695 16.7114C45.5607 16.8087 45.6611 16.9378 45.5848 17.0762C45.4025 17.3307 45.0063 17.2053 44.7496 17.1754C44.6213 17.1604 44.7757 17.2428 44.8054 17.2596C44.8985 17.312 44.9989 17.3644 45.0938 17.4149C45.2221 17.4804 45.3895 17.5327 45.529 17.5814C45.596 17.6038 45.8341 17.66 45.6034 17.6768C45.5011 17.6843 45.4081 17.6749 45.3002 17.6862C45.2203 17.6955 45.1235 17.7086 45.0547 17.7516C44.9989 17.7891 44.9505 17.8583 44.9078 17.9107C44.8464 17.9836 44.7831 18.0547 44.7199 18.1258V18.1239Z" fill="url(#paint43_radial_2_3)"/>
<path style="mix-blend-mode:multiply" fill-rule="evenodd" clip-rule="evenodd" d="M47.1027 14.8293C43.0495 16.3634 37.737 20.5374 36.1485 24.2717C36.035 23.9331 35.9327 23.5664 35.8732 23.2147C35.795 22.747 35.9996 22.4196 35.9941 21.9874C35.9922 21.7666 35.9364 21.7722 35.8564 21.6169C35.7485 21.4093 35.9569 20.6721 36.0257 20.4439L36.0536 20.3541C36.115 20.1595 36.2973 19.4897 36.5558 19.5065C36.8739 19.5253 37.577 20.6048 37.6124 19.6693C37.6365 19.0295 37.4766 18.5281 37.6812 17.8527C37.7389 17.7142 37.8058 17.5964 37.897 17.4785C37.9565 17.3999 38.0681 17.2521 38.163 17.2334H38.1871C38.4029 17.2428 38.5759 17.9443 38.6299 18.137C38.6429 18.1838 38.8698 18.9752 38.8289 18.5C38.7694 17.8152 38.6838 17.1791 39.054 16.5505C39.1209 16.4514 39.2344 16.3559 39.3293 16.283C39.3739 16.2474 39.4539 16.1819 39.506 16.1707C39.5636 16.1632 39.599 16.1969 39.6325 16.2399C39.7087 16.3391 39.8408 16.6721 39.8836 16.8068C39.984 17.1118 39.9617 16.8349 39.9394 16.7114C39.8966 16.4701 39.8538 16.3616 39.9059 16.1071C39.9617 15.8602 40.038 15.8358 40.2426 15.7329C40.3095 15.703 40.3616 15.6918 40.4342 15.7011C40.4751 15.7086 40.5142 15.718 40.5532 15.7329C40.8006 15.8433 40.8601 16.1501 40.9159 16.3896C40.9234 16.4177 41.0629 17.0688 41.1243 16.8686C41.1466 16.7956 41.1392 16.5037 41.1466 16.4008C41.1689 16.0884 41.1801 15.8938 41.3456 15.6169C41.5819 15.2278 41.5037 15.1305 41.9688 14.9584C42.3092 14.8349 42.5008 14.7376 42.7091 15.1249C42.8449 15.3775 43.109 16.4046 43.522 15.9537C44.0205 15.4111 43.8661 14.4719 44.852 14.3073C45.0249 14.2886 45.3393 14.2549 45.5049 14.2643L45.5458 14.2736L45.5625 14.283C45.6295 14.3316 45.6034 14.4682 45.5886 14.5374C45.5588 14.6665 45.5179 14.7825 45.4937 14.9172C45.4583 15.1137 45.5104 15.1604 45.6313 14.9827C45.7299 14.8368 45.7839 14.7301 45.9104 14.5935C46.0815 14.4158 46.2266 14.2886 46.4833 14.2886C46.9613 14.3185 47.5045 14.4139 47.9658 14.5374C47.6849 14.6197 47.3947 14.7189 47.099 14.8312L47.1027 14.8293Z" fill="url(#paint44_radial_2_3)"/>
<path fill-rule="evenodd" clip-rule="evenodd" d="M49 14.2961C46.9241 14.399 43.7284 16.2605 42.0078 17.486C39.6101 19.1922 36.3624 22.2979 35.7448 25.2689C35.6592 25.6843 35.6276 25.9949 35.6815 26.4177L35.7374 25.9761C36.0164 23.9256 37.6086 21.9238 39.0409 20.485C41.1782 18.3354 44.2772 16.0772 47.0859 14.9303C47.7723 14.6497 48.3155 14.5131 49.0019 14.2961H49Z" fill="url(#paint45_radial_2_3)"/>
</g>
<g filter="url(#filter0_d_2_3)">
<path d="M37.3388 3.97368H12.6652C11.4154 3.97368 9.82058 5.03765 10.0164 7.11357C10.217 9.1895 12.2129 24.5863 12.3621 25.499C12.5113 26.4116 13.1129 27.2722 13.6118 27.6742C14.1108 28.0809 24.9996 33.5 24.9996 33.5C24.9996 33.5 35.8885 28.0809 36.3874 27.6742C36.8864 27.2675 37.488 26.4069 37.6372 25.499C37.7864 24.5863 39.787 9.1895 39.9829 7.11357C40.1834 5.03765 38.5839 3.97368 37.3341 3.97368H37.3388Z" fill="url(#paint46_linear_2_3)"/>
</g>
<path d="M37.3388 3.10526H12.6652C11.4154 3.10526 9.82058 4.20053 10.0164 6.3375C10.217 8.47448 12.2129 24.3241 12.3621 25.2636C12.5113 26.2031 13.1129 27.0891 13.6118 27.5028C14.1108 27.9215 24.9996 33.5 24.9996 33.5C24.9996 33.5 35.8885 27.9215 36.3874 27.5028C36.8864 27.0842 37.488 26.1983 37.6372 25.2636C37.7864 24.3241 39.787 8.47448 39.9829 6.3375C40.1834 4.20053 38.5839 3.10526 37.3341 3.10526H37.3388Z" fill="url(#paint47_linear_2_3)"/>
<path d="M37.3388 3.10526H12.6652C11.4154 3.10526 9.82058 4.16923 10.0164 6.24515C10.217 8.32107 12.2129 23.7179 12.3621 24.6305C12.5113 25.5432 13.1129 26.4038 13.6118 26.8058C14.1108 27.2124 24.9996 32.6316 24.9996 32.6316C24.9996 32.6316 35.8885 27.2124 36.3874 26.8058C36.8864 26.3991 37.488 25.5385 37.6372 24.6305C37.7864 23.7179 39.787 8.32107 39.9829 6.24515C40.1834 4.16923 38.5839 3.10526 37.3341 3.10526H37.3388Z" fill="url(#paint48_linear_2_3)"/>
<path d="M37.3388 3.10526H12.6652C11.4154 3.10526 9.82058 4.16923 10.0164 6.24515C10.217 8.32107 12.2129 23.7179 12.3621 24.6305C12.5113 25.5432 13.1129 26.4038 13.6118 26.8058C14.1108 27.2124 24.9996 32.6316 24.9996 32.6316C24.9996 32.6316 35.8885 27.2124 36.3874 26.8058C36.8864 26.3991 37.488 25.5385 37.6372 24.6305C37.7864 23.7179 39.787 8.32107 39.9829 6.24515C40.1834 4.16923 38.5839 3.10526 37.3341 3.10526H37.3388Z" fill="url(#paint49_linear_2_3)"/>
<path d="M37.3388 3.10526H12.6652C11.4154 3.10526 9.82058 4.16923 10.0164 6.24515C10.217 8.32107 12.2129 23.7179 12.3621 24.6305C12.5113 25.5432 13.1129 26.4038 13.6118 26.8058C14.1108 27.2124 24.9996 32.6316 24.9996 32.6316C24.9996 32.6316 35.8885 27.2124 36.3874 26.8058C36.8864 26.3991 37.488 25.5385 37.6372 24.6305C37.7864 23.7179 39.787 8.32107 39.9829 6.24515C40.1834 4.16923 38.5839 3.10526 37.3341 3.10526H37.3388Z" fill="url(#paint50_linear_2_3)"/>
<path d="M37.3388 3.10526H12.6652C11.4154 3.10526 9.82058 4.16923 10.0164 6.24515C10.217 8.32107 12.2129 23.7179 12.3621 24.6305C12.5113 25.5432 13.1129 26.4038 13.6118 26.8058C14.1108 27.2124 24.9996 32.6316 24.9996 32.6316C24.9996 32.6316 35.8885 27.2124 36.3874 26.8058C36.8864 26.3991 37.488 25.5385 37.6372 24.6305C37.7864 23.7179 39.787 8.32107 39.9829 6.24515C40.1834 4.16923 38.5839 3.10526 37.3341 3.10526H37.3388Z" fill="url(#paint51_linear_2_3)"/>
<path d="M37.3388 2.23684H12.6652C11.4154 2.23684 9.82058 3.26952 10.0164 5.28438C10.217 7.29925 12.2129 22.2432 12.3621 23.129C12.5113 24.0148 13.1129 24.8501 13.6118 25.2403C14.1108 25.635 24.9996 30.8947 24.9996 30.8947C24.9996 30.8947 35.8885 25.635 36.3874 25.2403C36.8864 24.8456 37.488 24.0102 37.6372 23.129C37.7864 22.2432 39.787 7.29925 39.9829 5.28438C40.1834 3.26952 38.5839 2.23684 37.3341 2.23684H37.3388Z" fill="url(#paint52_linear_2_3)"/>
<path d="M37.3388 2.23684H12.6652C11.4154 2.23684 9.82058 3.26952 10.0164 5.28438C10.217 7.29925 12.2129 22.2432 12.3621 23.129C12.5113 24.0148 13.1129 24.8501 13.6118 25.2403C14.1108 25.635 24.9996 30.8947 24.9996 30.8947C24.9996 30.8947 35.8885 25.635 36.3874 25.2403C36.8864 24.8456 37.488 24.0102 37.6372 23.129C37.7864 22.2432 39.787 7.29925 39.9829 5.28438C40.1834 3.26952 38.5839 2.23684 37.3341 2.23684H37.3388Z" fill="url(#paint53_linear_2_3)"/>
<path d="M37.3388 2.23684H12.6652C11.4154 2.23684 9.82058 3.26952 10.0164 5.28438C10.217 7.29925 12.2129 22.2432 12.3621 23.129C12.5113 24.0148 13.1129 24.8501 13.6118 25.2403C14.1108 25.635 24.9996 30.8947 24.9996 30.8947C24.9996 30.8947 35.8885 25.635 36.3874 25.2403C36.8864 24.8456 37.488 24.0102 37.6372 23.129C37.7864 22.2432 39.787 7.29925 39.9829 5.28438C40.1834 3.26952 38.5839 2.23684 37.3341 2.23684H37.3388Z" fill="url(#paint54_linear_2_3)"/>
<path d="M37.3388 2.23684H12.6652C11.4154 2.23684 9.82058 3.26952 10.0164 5.28438C10.217 7.29925 12.2129 22.2432 12.3621 23.129C12.5113 24.0148 13.1129 24.8501 13.6118 25.2403C14.1108 25.635 24.9996 30.8947 24.9996 30.8947C24.9996 30.8947 35.8885 25.635 36.3874 25.2403C36.8864 24.8456 37.488 24.0102 37.6372 23.129C37.7864 22.2432 39.787 7.29925 39.9829 5.28438C40.1834 3.26952 38.5839 2.23684 37.3341 2.23684H37.3388Z" fill="url(#paint55_linear_2_3)"/>
<path d="M37.3388 0.5H12.6652C11.4154 0.5 9.82058 1.59526 10.0164 3.73224C10.217 5.86922 12.2129 21.7189 12.3621 22.6584C12.5113 23.5979 13.1129 24.4838 13.6118 24.8976C14.1108 25.3162 24.9996 30.8947 24.9996 30.8947C24.9996 30.8947 35.8885 25.3162 36.3874 24.8976C36.8864 24.4789 37.488 23.593 37.6372 22.6584C37.7864 21.7189 39.787 5.86922 39.9829 3.73224C40.1834 1.59526 38.5839 0.5 37.3341 0.5H37.3388Z" fill="url(#paint56_linear_2_3)"/>
<path d="M37.3388 0.5H12.6652C11.4154 0.5 9.82058 1.56397 10.0164 3.63989C10.217 5.71581 12.2129 21.1126 12.3621 22.0253C12.5113 22.9379 13.1129 23.7986 13.6118 24.2005C14.1108 24.6072 24.9996 30.0263 24.9996 30.0263C24.9996 30.0263 35.8885 24.6072 36.3874 24.2005C36.8864 23.7938 37.488 22.9332 37.6372 22.0253C37.7864 21.1126 39.787 5.71581 39.9829 3.63989C40.1834 1.56397 38.5839 0.5 37.3341 0.5H37.3388Z" fill="url(#paint57_linear_2_3)"/>
<path d="M37.3388 3.10526H12.6652C11.4154 3.10526 9.82058 4.16923 10.0164 6.24515C10.217 8.32107 12.2129 23.7179 12.3621 24.6305C12.5113 25.5432 13.1129 26.4038 13.6118 26.8058C14.1108 27.2124 24.9996 32.6316 24.9996 32.6316C24.9996 32.6316 35.8885 27.2124 36.3874 26.8058C36.8864 26.3991 37.488 25.5385 37.6372 24.6305C37.7864 23.7179 39.787 8.32107 39.9829 6.24515C40.1834 4.16923 38.5839 3.10526 37.3341 3.10526H37.3388Z" fill="url(#paint58_linear_2_3)"/>
<path d="M37.3388 3.10526H12.6652C11.4154 3.10526 9.82058 4.16923 10.0164 6.24515C10.217 8.32107 12.2129 23.7179 12.3621 24.6305C12.5113 25.5432 13.1129 26.4038 13.6118 26.8058C14.1108 27.2124 24.9996 32.6316 24.9996 32.6316C24.9996 32.6316 35.8885 27.2124 36.3874 26.8058C36.8864 26.3991 37.488 25.5385 37.6372 24.6305C37.7864 23.7179 39.787 8.32107 39.9829 6.24515C40.1834 4.16923 38.5839 3.10526 37.3341 3.10526H37.3388Z" fill="url(#paint59_linear_2_3)"/>
<path d="M37.3388 3.10526H12.6652C11.4154 3.10526 9.82058 4.16923 10.0164 6.24515C10.217 8.32107 12.2129 23.7179 12.3621 24.6305C12.5113 25.5432 13.1129 26.4038 13.6118 26.8058C14.1108 27.2124 24.9996 32.6316 24.9996 32.6316C24.9996 32.6316 35.8885 27.2124 36.3874 26.8058C36.8864 26.3991 37.488 25.5385 37.6372 24.6305C37.7864 23.7179 39.787 8.32107 39.9829 6.24515C40.1834 4.16923 38.5839 3.10526 37.3341 3.10526H37.3388Z" fill="url(#paint60_linear_2_3)"/>
<path d="M37.3388 3.10526H12.6652C11.4154 3.10526 9.82058 4.16923 10.0164 6.24515C10.217 8.32107 12.2129 23.7179 12.3621 24.6305C12.5113 25.5432 13.1129 26.4038 13.6118 26.8058C14.1108 27.2124 24.9996 32.6316 24.9996 32.6316C24.9996 32.6316 35.8885 27.2124 36.3874 26.8058C36.8864 26.3991 37.488 25.5385 37.6372 24.6305C37.7864 23.7179 39.787 8.32107 39.9829 6.24515C40.1834 4.16923 38.5839 3.10526 37.3341 3.10526H37.3388Z" fill="url(#paint61_linear_2_3)"/>
<path d="M37.3388 2.23684H12.6652C11.4154 2.23684 9.82058 3.26952 10.0164 5.28438C10.217 7.29925 12.2129 22.2432 12.3621 23.129C12.5113 24.0148 13.1129 24.8501 13.6118 25.2403C14.1108 25.635 24.9996 30.8947 24.9996 30.8947C24.9996 30.8947 35.8885 25.635 36.3874 25.2403C36.8864 24.8456 37.488 24.0102 37.6372 23.129C37.7864 22.2432 39.787 7.29925 39.9829 5.28438C40.1834 3.26952 38.5839 2.23684 37.3341 2.23684H37.3388Z" fill="url(#paint62_linear_2_3)"/>
<path d="M37.3388 2.23684H12.6652C11.4154 2.23684 9.82058 3.26952 10.0164 5.28438C10.217 7.29925 12.2129 22.2432 12.3621 23.129C12.5113 24.0148 13.1129 24.8501 13.6118 25.2403C14.1108 25.635 24.9996 30.8947 24.9996 30.8947C24.9996 30.8947 35.8885 25.635 36.3874 25.2403C36.8864 24.8456 37.488 24.0102 37.6372 23.129C37.7864 22.2432 39.787 7.29925 39.9829 5.28438C40.1834 3.26952 38.5839 2.23684 37.3341 2.23684H37.3388Z" fill="url(#paint63_linear_2_3)"/>
<path d="M37.3388 2.23684H12.6652C11.4154 2.23684 9.82058 3.26952 10.0164 5.28438C10.217 7.29925 12.2129 22.2432 12.3621 23.129C12.5113 24.0148 13.1129 24.8501 13.6118 25.2403C14.1108 25.635 24.9996 30.8947 24.9996 30.8947C24.9996 30.8947 35.8885 25.635 36.3874 25.2403C36.8864 24.8456 37.488 24.0102 37.6372 23.129C37.7864 22.2432 39.787 7.29925 39.9829 5.28438C40.1834 3.26952 38.5839 2.23684 37.3341 2.23684H37.3388Z" fill="url(#paint64_linear_2_3)"/>
<path d="M37.3388 2.23684H12.6652C11.4154 2.23684 9.82058 3.26952 10.0164 5.28438C10.217 7.29925 12.2129 22.2432 12.3621 23.129C12.5113 24.0148 13.1129 24.8501 13.6118 25.2403C14.1108 25.635 24.9996 30.8947 24.9996 30.8947C24.9996 30.8947 35.8885 25.635 36.3874 25.2403C36.8864 24.8456 37.488 24.0102 37.6372 23.129C37.7864 22.2432 39.787 7.29925 39.9829 5.28438C40.1834 3.26952 38.5839 2.23684 37.3341 2.23684H37.3388Z" fill="url(#paint65_linear_2_3)"/>
<path d="M37.3388 0.5H12.6652C11.4154 0.5 9.82058 1.59526 10.0164 3.73224C10.217 5.86922 12.2129 21.7189 12.3621 22.6584C12.5113 23.5979 13.1129 24.4838 13.6118 24.8976C14.1108 25.3162 24.9996 30.8947 24.9996 30.8947C24.9996 30.8947 35.8885 25.3162 36.3874 24.8976C36.8864 24.4789 37.488 23.593 37.6372 22.6584C37.7864 21.7189 39.787 5.86922 39.9829 3.73224C40.1834 1.59526 38.5839 0.5 37.3341 0.5H37.3388Z" fill="url(#paint66_linear_2_3)"/>
<path d="M37.3388 0.5H12.6652C11.4154 0.5 9.82058 1.56397 10.0164 3.63989C10.217 5.71581 12.2129 21.1126 12.3621 22.0253C12.5113 22.9379 13.1129 23.7986 13.6118 24.2005C14.1108 24.6072 24.9996 30.0263 24.9996 30.0263C24.9996 30.0263 35.8885 24.6072 36.3874 24.2005C36.8864 23.7938 37.488 22.9332 37.6372 22.0253C37.7864 21.1126 39.787 5.71581 39.9829 3.63989C40.1834 1.56397 38.5839 0.5 37.3341 0.5H37.3388Z" fill="url(#paint67_linear_2_3)"/>
<g style="mix-blend-mode:overlay" opacity="0.5">
<path d="M37.3388 0.5H12.6652C11.4154 0.5 9.82058 1.59526 10.0164 3.73224C10.217 5.86922 12.2129 21.7189 12.3621 22.6584C12.5113 23.5979 13.1129 24.4838 13.6118 24.8976C14.1108 25.3162 24.9996 30.8947 24.9996 30.8947C24.9996 30.8947 35.8885 25.3162 36.3874 24.8976C36.8864 24.4789 37.488 23.593 37.6372 22.6584C37.7864 21.7189 39.787 5.86922 39.9829 3.73224C40.1834 1.59526 38.5839 0.5 37.3341 0.5H37.3388Z" fill="white"/>
</g>
<path d="M37.3388 0.5H12.6652C11.4154 0.5 9.82058 1.56397 10.0164 3.63989C10.217 5.71581 12.2129 21.1126 12.3621 22.0253C12.5113 22.9379 13.1129 23.7986 13.6118 24.2005C14.1108 24.6072 24.9996 30.0263 24.9996 30.0263C24.9996 30.0263 35.8885 24.6072 36.3874 24.2005C36.8864 23.7938 37.488 22.9332 37.6372 22.0253C37.7864 21.1126 39.787 5.71581 39.9829 3.63989C40.1834 1.56397 38.5839 0.5 37.3341 0.5H37.3388Z" fill="url(#paint68_linear_2_3)"/>
<path style="mix-blend-mode:overlay" opacity="0.3" d="M37.3388 0.5H12.6652C11.4154 0.5 9.82058 1.56397 10.0164 3.63989C10.217 5.71581 12.2129 21.1126 12.3621 22.0253C12.5113 22.9379 13.1129 23.7986 13.6118 24.2005C14.1108 24.6072 24.9996 30.0263 24.9996 30.0263C24.9996 30.0263 35.8885 24.6072 36.3874 24.2005C36.8864 23.7938 37.488 22.9332 37.6372 22.0253C37.7864 21.1126 39.787 5.71581 39.9829 3.63989C40.1834 1.56397 38.5839 0.5 37.3341 0.5H37.3388Z" fill="url(#paint69_linear_2_3)"/>
<defs>
<filter id="filter0_d_2_3" x="6" y="1.97368" width="38" height="37.5263" filterUnits="userSpaceOnUse" color-interpolation-filters="sRGB">
<feFlood flood-opacity="0" result="BackgroundImageFix"/>
<feColorMatrix in="SourceAlpha" type="matrix" values="0 0 0 0 0 0 0 0 0 0 0 0 0 0 0 0 0 0 127 0" result="hardAlpha"/>
<feOffset dy="2"/>
<feGaussianBlur stdDeviation="2"/>
<feComposite in2="hardAlpha" operator="out"/>
<feColorMatrix type="matrix" values="0 0 0 0 0 0 0 0 0 0 0 0 0 0 0 0 0 0 0.15 0"/>
<feBlend mode="normal" in2="BackgroundImageFix" result="effect1_dropShadow_2_3"/>
<feBlend mode="normal" in="SourceGraphic" in2="effect1_dropShadow_2_3" result="shape"/>
</filter>
<radialGradient id="paint0_radial_2_3" cx="0" cy="0" r="1" gradientUnits="userSpaceOnUse" gradientTransform="translate(9.69983 5.20095) rotate(14.6308) scale(4.67434 4.698)">
<stop stop-color="#9FA615"/>
<stop offset="0.23" stop-color="#9EA114"/>
<stop offset="0.48" stop-color="#9C9313"/>
<stop offset="0.75" stop-color="#997D10"/>
<stop offset="1" stop-color="#96620E"/>
</radialGradient>
<radialGradient id="paint1_radial_2_3" cx="0" cy="0" r="1" gradientUnits="userSpaceOnUse" gradientTransform="translate(10.3503 4.60919) rotate(14.6308) scale(5.76104 5.7902)">
<stop stop-color="#B4C435"/>
<stop offset="0.2" stop-color="#B3BF32"/>
<stop offset="0.43" stop-color="#B2B12C"/>
<stop offset="0.67" stop-color="#B09B23"/>
<stop offset="0.92" stop-color="#AD7C15"/>
<stop offset="1" stop-color="#AD7110"/>
</radialGradient>
<radialGradient id="paint2_radial_2_3" cx="0" cy="0" r="1" gradientUnits="userSpaceOnUse" gradientTransform="translate(5.58846 6.50625) rotate(-23.4106) scale(6.3767 6.40204)">
<stop stop-color="#9FA615"/>
<stop offset="0.23" stop-color="#9EA114"/>
<stop offset="0.48" stop-color="#9C9313"/>
<stop offset="0.75" stop-color="#997D10"/>
<stop offset="1" stop-color="#96620E"/>
</radialGradient>
<radialGradient id="paint3_radial_2_3" cx="0" cy="0" r="1" gradientUnits="userSpaceOnUse" gradientTransform="translate(5.73447 6.63449) rotate(-23.4106) scale(7.59432 7.6245)">
<stop stop-color="#B4C435"/>
<stop offset="0.2" stop-color="#B3BF32"/>
<stop offset="0.43" stop-color="#B2B12C"/>
<stop offset="0.67" stop-color="#B09B23"/>
<stop offset="0.92" stop-color="#AD7C15"/>
<stop offset="1" stop-color="#AD7110"/>
</radialGradient>
<radialGradient id="paint4_radial_2_3" cx="0" cy="0" r="1" gradientUnits="userSpaceOnUse" gradientTransform="translate(14.9122 1.56166) rotate(-19.6346) scale(8.30152 8.33883)">
<stop stop-color="#9FA615"/>
<stop offset="0.23" stop-color="#9EA114"/>
<stop offset="0.48" stop-color="#9C9313"/>
<stop offset="0.75" stop-color="#997D10"/>
<stop offset="1" stop-color="#96620E"/>
</radialGradient>
<radialGradient id="paint5_radial_2_3" cx="0" cy="0" r="1" gradientUnits="userSpaceOnUse" gradientTransform="translate(12.1289 1.72286) rotate(-19.6346) scale(7.85853 7.89384)">
<stop stop-color="#B4C435"/>
<stop offset="0.2" stop-color="#B3BF32"/>
<stop offset="0.43" stop-color="#B2B12C"/>
<stop offset="0.67" stop-color="#B09B23"/>
<stop offset="0.92" stop-color="#AD7C15"/>
<stop offset="1" stop-color="#AD7110"/>
</radialGradient>
<radialGradient id="paint6_radial_2_3" cx="0" cy="0" r="1" gradientUnits="userSpaceOnUse" gradientTransform="translate(8.56076 3.74687) rotate(-27.9369) scale(7.68455 7.70962)">
<stop stop-color="#9FA615"/>
<stop offset="0.23" stop-color="#9EA114"/>
<stop offset="0.48" stop-color="#9C9313"/>
<stop offset="0.75" stop-color="#997D10"/>
<stop offset="1" stop-color="#96620E"/>
</radialGradient>
<radialGradient id="paint7_radial_2_3" cx="0" cy="0" r="1" gradientUnits="userSpaceOnUse" gradientTransform="translate(8.39095 3.00572) rotate(-27.9369) scale(11.9571 11.9961)">
<stop stop-color="#B4C435"/>
<stop offset="0.2" stop-color="#B3BF32"/>
<stop offset="0.43" stop-color="#B2B12C"/>
<stop offset="0.67" stop-color="#B09B23"/>
<stop offset="0.92" stop-color="#AD7C15"/>
<stop offset="1" stop-color="#AD7110"/>
</radialGradient>
<radialGradient id="paint8_radial_2_3" cx="0" cy="0" r="1" gradientUnits="userSpaceOnUse" gradientTransform="translate(11.2532 5.31665) rotate(149.977) scale(10.2137 10.2434)">
<stop stop-color="#5FB30B"/>
<stop offset="0.9" stop-color="#3B7501"/>
<stop offset="1" stop-color="#386E00"/>
</radialGradient>
<radialGradient id="paint9_radial_2_3" cx="0" cy="0" r="1" gradientUnits="userSpaceOnUse" gradientTransform="translate(5.37609 9.26536) rotate(149.977) scale(10.9533 10.9851)">
<stop stop-color="#76D11B"/>
<stop offset="0.77" stop-color="#4D9306"/>
<stop offset="1" stop-color="#418000"/>
</radialGradient>
<radialGradient id="paint10_radial_2_3" cx="0" cy="0" r="1" gradientUnits="userSpaceOnUse" gradientTransform="translate(10.0034 13.8844) rotate(149.977) scale(8.70674 8.73202)">
<stop stop-color="#D0D9C5"/>
<stop offset="0.63" stop-color="#F0F2EC"/>
<stop offset="1" stop-color="white"/>
</radialGradient>
<radialGradient id="paint11_radial_2_3" cx="0" cy="0" r="1" gradientUnits="userSpaceOnUse" gradientTransform="translate(12.8472 13.1882) rotate(149.977) scale(9.69402 9.72218)">
<stop stop-color="#D0D9C5"/>
<stop offset="0.63" stop-color="#F0F2EC"/>
<stop offset="1" stop-color="white"/>
</radialGradient>
<radialGradient id="paint12_radial_2_3" cx="0" cy="0" r="1" gradientUnits="userSpaceOnUse" gradientTransform="translate(7.01773 7.61757) rotate(149.977) scale(9.85609 9.88471)">
<stop stop-color="#499400"/>
<stop offset="0.9" stop-color="#2B5600"/>
<stop offset="1" stop-color="#284F00"/>
</radialGradient>
<radialGradient id="paint13_radial_2_3" cx="0" cy="0" r="1" gradientUnits="userSpaceOnUse" gradientTransform="translate(-0.0886415 35.1528) rotate(-81.777) scale(15.7137 15.6269)">
<stop stop-color="#52A600"/>
<stop offset="0.87" stop-color="#346800"/>
<stop offset="1" stop-color="#305E00"/>
</radialGradient>
<radialGradient id="paint14_radial_2_3" cx="0" cy="0" r="1" gradientUnits="userSpaceOnUse" gradientTransform="translate(2.85146 23.6135) rotate(-81.777) scale(13.946 13.8688)">
<stop stop-color="#5FB30B"/>
<stop offset="0.9" stop-color="#3B7501"/>
<stop offset="1" stop-color="#386E00"/>
</radialGradient>
<radialGradient id="paint15_radial_2_3" cx="0" cy="0" r="1" gradientUnits="userSpaceOnUse" gradientTransform="translate(13.0777 33.2455) rotate(-81.777) scale(16.7576 16.6649)">
<stop stop-color="#D0D9C5"/>
<stop offset="0.63" stop-color="#F0F2EC"/>
<stop offset="1" stop-color="white"/>
</radialGradient>
<radialGradient id="paint16_radial_2_3" cx="0" cy="0" r="1" gradientUnits="userSpaceOnUse" gradientTransform="translate(15.7584 24.1127) rotate(-81.777) scale(17.678 17.5802)">
<stop stop-color="#D0D9C5"/>
<stop offset="0.63" stop-color="#F0F2EC"/>
<stop offset="1" stop-color="white"/>
</radialGradient>
<radialGradient id="paint17_radial_2_3" cx="0" cy="0" r="1" gradientUnits="userSpaceOnUse" gradientTransform="translate(1.7728 26.044) rotate(-81.777) scale(17.5451 17.4481)">
<stop stop-color="#499400"/>
<stop offset="0.9" stop-color="#2B5600"/>
<stop offset="1" stop-color="#284F00"/>
</radialGradient>
<radialGradient id="paint18_radial_2_3" cx="0" cy="0" r="1" gradientUnits="userSpaceOnUse" gradientTransform="translate(-0.809223 18.1882) rotate(-48.0248) scale(19.198 19.1866)">
<stop stop-color="#5FB30B"/>
<stop offset="0.9" stop-color="#3B7501"/>
<stop offset="1" stop-color="#386E00"/>
</radialGradient>
<radialGradient id="paint19_radial_2_3" cx="0" cy="0" r="1" gradientUnits="userSpaceOnUse" gradientTransform="translate(5.11422 11.7683) rotate(-48.0248) scale(19.6795 19.6678)">
<stop stop-color="#76D11B"/>
<stop offset="0.77" stop-color="#4D9306"/>
<stop offset="1" stop-color="#418000"/>
</radialGradient>
<radialGradient id="paint20_radial_2_3" cx="0" cy="0" r="1" gradientUnits="userSpaceOnUse" gradientTransform="translate(7.08656 30.0014) rotate(-48.0248) scale(19.2503 19.2388)">
<stop stop-color="#D0D9C5"/>
<stop offset="0.63" stop-color="#F0F2EC"/>
<stop offset="1" stop-color="white"/>
</radialGradient>
<radialGradient id="paint21_radial_2_3" cx="0" cy="0" r="1" gradientUnits="userSpaceOnUse" gradientTransform="translate(17.3743 20.2389) rotate(-48.0248) scale(20.0415 20.0296)">
<stop stop-color="#D0D9C5"/>
<stop offset="0.63" stop-color="#F0F2EC"/>
<stop offset="1" stop-color="white"/>
</radialGradient>
<radialGradient id="paint22_radial_2_3" cx="0" cy="0" r="1" gradientUnits="userSpaceOnUse" gradientTransform="translate(1.70474 14.8193) rotate(-48.0248) scale(22.5103 22.4969)">
<stop stop-color="#499400"/>
<stop offset="0.9" stop-color="#2B5600"/>
<stop offset="1" stop-color="#284F00"/>
</radialGradient>
<radialGradient id="paint23_radial_2_3" cx="0" cy="0" r="1" gradientUnits="userSpaceOnUse" gradientTransform="translate(39.3002 5.20095) rotate(165.369) scale(4.67434 4.698)">
<stop stop-color="#9FA615"/>
<stop offset="0.23" stop-color="#9EA114"/>
<stop offset="0.48" stop-color="#9C9313"/>
<stop offset="0.75" stop-color="#997D10"/>
<stop offset="1" stop-color="#96620E"/>
</radialGradient>
<radialGradient id="paint24_radial_2_3" cx="0" cy="0" r="1" gradientUnits="userSpaceOnUse" gradientTransform="translate(38.6497 4.60919) rotate(165.369) scale(5.76104 5.7902)">
<stop stop-color="#B4C435"/>
<stop offset="0.2" stop-color="#B3BF32"/>
<stop offset="0.43" stop-color="#B2B12C"/>
<stop offset="0.67" stop-color="#B09B23"/>
<stop offset="0.92" stop-color="#AD7C15"/>
<stop offset="1" stop-color="#AD7110"/>
</radialGradient>
<radialGradient id="paint25_radial_2_3" cx="0" cy="0" r="1" gradientUnits="userSpaceOnUse" gradientTransform="translate(43.4115 6.50625) rotate(-156.589) scale(6.3767 6.40204)">
<stop stop-color="#9FA615"/>
<stop offset="0.23" stop-color="#9EA114"/>
<stop offset="0.48" stop-color="#9C9313"/>
<stop offset="0.75" stop-color="#997D10"/>
<stop offset="1" stop-color="#96620E"/>
</radialGradient>
<radialGradient id="paint26_radial_2_3" cx="0" cy="0" r="1" gradientUnits="userSpaceOnUse" gradientTransform="translate(43.2655 6.63449) rotate(-156.589) scale(7.59432 7.6245)">
<stop stop-color="#B4C435"/>
<stop offset="0.2" stop-color="#B3BF32"/>
<stop offset="0.43" stop-color="#B2B12C"/>
<stop offset="0.67" stop-color="#B09B23"/>
<stop offset="0.92" stop-color="#AD7C15"/>
<stop offset="1" stop-color="#AD7110"/>
</radialGradient>
<radialGradient id="paint27_radial_2_3" cx="0" cy="0" r="1" gradientUnits="userSpaceOnUse" gradientTransform="translate(34.0878 1.56166) rotate(-160.365) scale(8.30152 8.33883)">
<stop stop-color="#9FA615"/>
<stop offset="0.23" stop-color="#9EA114"/>
<stop offset="0.48" stop-color="#9C9313"/>
<stop offset="0.75" stop-color="#997D10"/>
<stop offset="1" stop-color="#96620E"/>
</radialGradient>
<radialGradient id="paint28_radial_2_3" cx="0" cy="0" r="1" gradientUnits="userSpaceOnUse" gradientTransform="translate(36.8711 1.72286) rotate(-160.365) scale(7.85853 7.89384)">
<stop stop-color="#B4C435"/>
<stop offset="0.2" stop-color="#B3BF32"/>
<stop offset="0.43" stop-color="#B2B12C"/>
<stop offset="0.67" stop-color="#B09B23"/>
<stop offset="0.92" stop-color="#AD7C15"/>
<stop offset="1" stop-color="#AD7110"/>
</radialGradient>
<radialGradient id="paint29_radial_2_3" cx="0" cy="0" r="1" gradientUnits="userSpaceOnUse" gradientTransform="translate(40.4392 3.74687) rotate(-152.063) scale(7.68455 7.70962)">
<stop stop-color="#9FA615"/>
<stop offset="0.23" stop-color="#9EA114"/>
<stop offset="0.48" stop-color="#9C9313"/>
<stop offset="0.75" stop-color="#997D10"/>
<stop offset="1" stop-color="#96620E"/>
</radialGradient>
<radialGradient id="paint30_radial_2_3" cx="0" cy="0" r="1" gradientUnits="userSpaceOnUse" gradientTransform="translate(40.609 3.00572) rotate(-152.063) scale(11.9571 11.9961)">
<stop stop-color="#B4C435"/>
<stop offset="0.2" stop-color="#B3BF32"/>
<stop offset="0.43" stop-color="#B2B12C"/>
<stop offset="0.67" stop-color="#B09B23"/>
<stop offset="0.92" stop-color="#AD7C15"/>
<stop offset="1" stop-color="#AD7110"/>
</radialGradient>
<radialGradient id="paint31_radial_2_3" cx="0" cy="0" r="1" gradientUnits="userSpaceOnUse" gradientTransform="translate(37.7468 5.31665) rotate(30.0233) scale(10.2137 10.2434)">
<stop stop-color="#5FB30B"/>
<stop offset="0.9" stop-color="#3B7501"/>
<stop offset="1" stop-color="#386E00"/>
</radialGradient>
<radialGradient id="paint32_radial_2_3" cx="0" cy="0" r="1" gradientUnits="userSpaceOnUse" gradientTransform="translate(43.6239 9.26536) rotate(30.0233) scale(10.9533 10.9851)">
<stop stop-color="#76D11B"/>
<stop offset="0.77" stop-color="#4D9306"/>
<stop offset="1" stop-color="#418000"/>
</radialGradient>
<radialGradient id="paint33_radial_2_3" cx="0" cy="0" r="1" gradientUnits="userSpaceOnUse" gradientTransform="translate(38.9966 13.8844) rotate(30.0233) scale(8.70674 8.73202)">
<stop stop-color="#D0D9C5"/>
<stop offset="0.63" stop-color="#F0F2EC"/>
<stop offset="1" stop-color="white"/>
</radialGradient>
<radialGradient id="paint34_radial_2_3" cx="0" cy="0" r="1" gradientUnits="userSpaceOnUse" gradientTransform="translate(36.1528 13.1882) rotate(30.0233) scale(9.69402 9.72218)">
<stop stop-color="#D0D9C5"/>
<stop offset="0.63" stop-color="#F0F2EC"/>
<stop offset="1" stop-color="white"/>
</radialGradient>
<radialGradient id="paint35_radial_2_3" cx="0" cy="0" r="1" gradientUnits="userSpaceOnUse" gradientTransform="translate(41.9823 7.61757) rotate(30.0233) scale(9.85609 9.88471)">
<stop stop-color="#499400"/>
<stop offset="0.9" stop-color="#2B5600"/>
<stop offset="1" stop-color="#284F00"/>
</radialGradient>
<radialGradient id="paint36_radial_2_3" cx="0" cy="0" r="1" gradientUnits="userSpaceOnUse" gradientTransform="translate(49.0886 35.1528) rotate(-98.223) scale(15.7137 15.6269)">
<stop stop-color="#52A600"/>
<stop offset="0.87" stop-color="#346800"/>
<stop offset="1" stop-color="#305E00"/>
</radialGradient>
<radialGradient id="paint37_radial_2_3" cx="0" cy="0" r="1" gradientUnits="userSpaceOnUse" gradientTransform="translate(46.1485 23.6135) rotate(-98.223) scale(13.946 13.8688)">
<stop stop-color="#5FB30B"/>
<stop offset="0.9" stop-color="#3B7501"/>
<stop offset="1" stop-color="#386E00"/>
</radialGradient>
<radialGradient id="paint38_radial_2_3" cx="0" cy="0" r="1" gradientUnits="userSpaceOnUse" gradientTransform="translate(35.9223 33.2455) rotate(-98.223) scale(16.7576 16.6649)">
<stop stop-color="#D0D9C5"/>
<stop offset="0.63" stop-color="#F0F2EC"/>
<stop offset="1" stop-color="white"/>
</radialGradient>
<radialGradient id="paint39_radial_2_3" cx="0" cy="0" r="1" gradientUnits="userSpaceOnUse" gradientTransform="translate(33.2416 24.1127) rotate(-98.223) scale(17.678 17.5802)">
<stop stop-color="#D0D9C5"/>
<stop offset="0.63" stop-color="#F0F2EC"/>
<stop offset="1" stop-color="white"/>
</radialGradient>
<radialGradient id="paint40_radial_2_3" cx="0" cy="0" r="1" gradientUnits="userSpaceOnUse" gradientTransform="translate(47.2272 26.044) rotate(-98.223) scale(17.5451 17.4481)">
<stop stop-color="#499400"/>
<stop offset="0.9" stop-color="#2B5600"/>
<stop offset="1" stop-color="#284F00"/>
</radialGradient>
<radialGradient id="paint41_radial_2_3" cx="0" cy="0" r="1" gradientUnits="userSpaceOnUse" gradientTransform="translate(49.8092 18.1882) rotate(-131.975) scale(19.198 19.1866)">
<stop stop-color="#5FB30B"/>
<stop offset="0.9" stop-color="#3B7501"/>
<stop offset="1" stop-color="#386E00"/>
</radialGradient>
<radialGradient id="paint42_radial_2_3" cx="0" cy="0" r="1" gradientUnits="userSpaceOnUse" gradientTransform="translate(43.8858 11.7683) rotate(-131.975) scale(19.6795 19.6678)">
<stop stop-color="#76D11B"/>
<stop offset="0.77" stop-color="#4D9306"/>
<stop offset="1" stop-color="#418000"/>
</radialGradient>
<radialGradient id="paint43_radial_2_3" cx="0" cy="0" r="1" gradientUnits="userSpaceOnUse" gradientTransform="translate(41.9134 30.0014) rotate(-131.975) scale(19.2503 19.2388)">
<stop stop-color="#D0D9C5"/>
<stop offset="0.63" stop-color="#F0F2EC"/>
<stop offset="1" stop-color="white"/>
</radialGradient>
<radialGradient id="paint44_radial_2_3" cx="0" cy="0" r="1" gradientUnits="userSpaceOnUse" gradientTransform="translate(31.6257 20.2389) rotate(-131.975) scale(20.0415 20.0296)">
<stop stop-color="#D0D9C5"/>
<stop offset="0.63" stop-color="#F0F2EC"/>
<stop offset="1" stop-color="white"/>
</radialGradient>
<radialGradient id="paint45_radial_2_3" cx="0" cy="0" r="1" gradientUnits="userSpaceOnUse" gradientTransform="translate(47.2953 14.8193) rotate(-131.975) scale(22.5103 22.4969)">
<stop stop-color="#499400"/>
<stop offset="0.9" stop-color="#2B5600"/>
<stop offset="1" stop-color="#284F00"/>
</radialGradient>
<linearGradient id="paint46_linear_2_3" x1="24.9996" y1="1.77482" x2="24.9996" y2="44.1444" gradientUnits="userSpaceOnUse">
<stop stop-color="#F77802"/>
<stop offset="0.28" stop-color="#F16F02"/>
<stop offset="0.74" stop-color="#E15703"/>
<stop offset="1" stop-color="#D64704"/>
</linearGradient>
<linearGradient id="paint47_linear_2_3" x1="3.91216" y1="0.841722" x2="4.42029" y2="44.457" gradientUnits="userSpaceOnUse">
<stop stop-color="#F77802"/>
<stop offset="0.28" stop-color="#F16F02"/>
<stop offset="0.74" stop-color="#E15703"/>
<stop offset="1" stop-color="#D64704"/>
</linearGradient>
<linearGradient id="paint48_linear_2_3" x1="3.91216" y1="0.906394" x2="4.39167" y2="43.2758" gradientUnits="userSpaceOnUse">
<stop stop-color="#F77802"/>
<stop offset="0.28" stop-color="#F16F02"/>
<stop offset="0.74" stop-color="#E15703"/>
<stop offset="1" stop-color="#D64704"/>
</linearGradient>
<linearGradient id="paint49_linear_2_3" x1="3.91216" y1="0.906394" x2="4.39167" y2="43.2758" gradientUnits="userSpaceOnUse">
<stop stop-color="#F77802"/>
<stop offset="0.28" stop-color="#F16F02"/>
<stop offset="0.74" stop-color="#E15703"/>
<stop offset="1" stop-color="#D64704"/>
</linearGradient>
<linearGradient id="paint50_linear_2_3" x1="3.91216" y1="0.906394" x2="4.39167" y2="43.2758" gradientUnits="userSpaceOnUse">
<stop stop-color="#F77802"/>
<stop offset="0.28" stop-color="#F16F02"/>
<stop offset="0.74" stop-color="#E15703"/>
<stop offset="1" stop-color="#D64704"/>
</linearGradient>
<linearGradient id="paint51_linear_2_3" x1="3.91216" y1="0.906394" x2="4.39167" y2="43.2758" gradientUnits="userSpaceOnUse">
<stop stop-color="#F77802"/>
<stop offset="0.28" stop-color="#F16F02"/>
<stop offset="0.74" stop-color="#E15703"/>
<stop offset="1" stop-color="#D64704"/>
</linearGradient>
<linearGradient id="paint52_linear_2_3" x1="3.91216" y1="0.102646" x2="4.36388" y2="41.2262" gradientUnits="userSpaceOnUse">
<stop stop-color="#F77802"/>
<stop offset="0.28" stop-color="#F16F02"/>
<stop offset="0.74" stop-color="#E15703"/>
<stop offset="1" stop-color="#D64704"/>
</linearGradient>
<linearGradient id="paint53_linear_2_3" x1="3.91216" y1="0.102646" x2="4.36388" y2="41.2262" gradientUnits="userSpaceOnUse">
<stop stop-color="#F77802"/>
<stop offset="0.28" stop-color="#F16F02"/>
<stop offset="0.74" stop-color="#E15703"/>
<stop offset="1" stop-color="#D64704"/>
</linearGradient>
<linearGradient id="paint54_linear_2_3" x1="3.91216" y1="0.102646" x2="4.36388" y2="41.2262" gradientUnits="userSpaceOnUse">
<stop stop-color="#F77802"/>
<stop offset="0.28" stop-color="#F16F02"/>
<stop offset="0.74" stop-color="#E15703"/>
<stop offset="1" stop-color="#D64704"/>
</linearGradient>
<linearGradient id="paint55_linear_2_3" x1="3.91216" y1="0.102646" x2="4.36388" y2="41.2262" gradientUnits="userSpaceOnUse">
<stop stop-color="#F77802"/>
<stop offset="0.28" stop-color="#F16F02"/>
<stop offset="0.74" stop-color="#E15703"/>
<stop offset="1" stop-color="#D64704"/>
</linearGradient>
<linearGradient id="paint56_linear_2_3" x1="3.91216" y1="-1.76354" x2="4.42029" y2="41.8517" gradientUnits="userSpaceOnUse">
<stop stop-color="#F77802"/>
<stop offset="0.28" stop-color="#F16F02"/>
<stop offset="0.74" stop-color="#E15703"/>
<stop offset="1" stop-color="#D64704"/>
</linearGradient>
<linearGradient id="paint57_linear_2_3" x1="3.91216" y1="-1.69887" x2="4.39167" y2="40.6706" gradientUnits="userSpaceOnUse">
<stop stop-color="#F77802"/>
<stop offset="0.28" stop-color="#F16F02"/>
<stop offset="0.74" stop-color="#E15703"/>
<stop offset="1" stop-color="#D64704"/>
</linearGradient>
<linearGradient id="paint58_linear_2_3" x1="24.9996" y1="0.906394" x2="24.9996" y2="43.276" gradientUnits="userSpaceOnUse">
<stop stop-color="#EDB117"/>
<stop offset="0.23" stop-color="#EDA815"/>
<stop offset="0.6" stop-color="#ED9012"/>
<stop offset="1" stop-color="#ED6F0E"/>
</linearGradient>
<linearGradient id="paint59_linear_2_3" x1="3.91216" y1="0.906394" x2="4.39167" y2="43.2758" gradientUnits="userSpaceOnUse">
<stop stop-color="#EDB117"/>
<stop offset="0.23" stop-color="#EDA815"/>
<stop offset="0.6" stop-color="#ED9012"/>
<stop offset="1" stop-color="#ED6F0E"/>
</linearGradient>
<linearGradient id="paint60_linear_2_3" x1="3.91216" y1="0.906394" x2="4.39167" y2="43.2758" gradientUnits="userSpaceOnUse">
<stop stop-color="#EDB117"/>
<stop offset="0.23" stop-color="#EDA815"/>
<stop offset="0.6" stop-color="#ED9012"/>
<stop offset="1" stop-color="#ED6F0E"/>
</linearGradient>
<linearGradient id="paint61_linear_2_3" x1="3.91216" y1="0.906394" x2="4.39167" y2="43.2758" gradientUnits="userSpaceOnUse">
<stop stop-color="#EDB117"/>
<stop offset="0.23" stop-color="#EDA815"/>
<stop offset="0.6" stop-color="#ED9012"/>
<stop offset="1" stop-color="#ED6F0E"/>
</linearGradient>
<linearGradient id="paint62_linear_2_3" x1="3.91216" y1="0.102646" x2="4.36388" y2="41.2262" gradientUnits="userSpaceOnUse">
<stop stop-color="#EDB117"/>
<stop offset="0.23" stop-color="#EDA815"/>
<stop offset="0.6" stop-color="#ED9012"/>
<stop offset="1" stop-color="#ED6F0E"/>
</linearGradient>
<linearGradient id="paint63_linear_2_3" x1="3.91216" y1="0.102646" x2="4.36388" y2="41.2262" gradientUnits="userSpaceOnUse">
<stop stop-color="#EDB117"/>
<stop offset="0.23" stop-color="#EDA815"/>
<stop offset="0.6" stop-color="#ED9012"/>
<stop offset="1" stop-color="#ED6F0E"/>
</linearGradient>
<linearGradient id="paint64_linear_2_3" x1="3.91216" y1="0.102646" x2="4.36388" y2="41.2262" gradientUnits="userSpaceOnUse">
<stop stop-color="#EDB117"/>
<stop offset="0.23" stop-color="#EDA815"/>
<stop offset="0.6" stop-color="#ED9012"/>
<stop offset="1" stop-color="#ED6F0E"/>
</linearGradient>
<linearGradient id="paint65_linear_2_3" x1="3.91216" y1="0.102646" x2="4.36388" y2="41.2262" gradientUnits="userSpaceOnUse">
<stop stop-color="#EDB117"/>
<stop offset="0.23" stop-color="#EDA815"/>
<stop offset="0.6" stop-color="#ED9012"/>
<stop offset="1" stop-color="#ED6F0E"/>
</linearGradient>
<linearGradient id="paint66_linear_2_3" x1="3.91216" y1="-1.76354" x2="4.42029" y2="41.8517" gradientUnits="userSpaceOnUse">
<stop stop-color="#EDB117"/>
<stop offset="0.23" stop-color="#EDA815"/>
<stop offset="0.6" stop-color="#ED9012"/>
<stop offset="1" stop-color="#ED6F0E"/>
</linearGradient>
<linearGradient id="paint67_linear_2_3" x1="3.91216" y1="-1.69887" x2="4.39167" y2="40.6706" gradientUnits="userSpaceOnUse">
<stop stop-color="#EDB117"/>
<stop offset="0.23" stop-color="#EDA815"/>
<stop offset="0.6" stop-color="#ED9012"/>
<stop offset="1" stop-color="#ED6F0E"/>
</linearGradient>
<linearGradient id="paint68_linear_2_3" x1="3.91216" y1="-1.69887" x2="4.39167" y2="40.6706" gradientUnits="userSpaceOnUse">
<stop stop-color="#EDB117"/>
<stop offset="0.23" stop-color="#EDA815"/>
<stop offset="0.6" stop-color="#ED9012"/>
<stop offset="1" stop-color="#ED6F0E"/>
</linearGradient>
<linearGradient id="paint69_linear_2_3" x1="24.9996" y1="0.225732" x2="24.9996" y2="30.0405" gradientUnits="userSpaceOnUse">
<stop offset="0.5" stop-color="white" stop-opacity="0.5"/>
<stop offset="1" stop-color="white" stop-opacity="0"/>
</linearGradient>
<clipPath id="clip0_2_3">
<rect width="15" height="30" fill="white" transform="translate(0 0.5)"/>
</clipPath>
<clipPath id="clip1_2_3">
<rect width="15" height="30" fill="white" transform="matrix(-1 0 0 1 49 0.5)"/>
</clipPath>
</defs>
</svg>
